M48
;Layer_Color=9474304
;FILE_FORMAT=2:5
INCH,LZ
;TYPE=PLATED
T1F00S00C0.01181
T2F00S00C0.01575
T4F00S00C0.03386
T5F00S00C0.04016
T6F00S00C0.04134
T7F00S00C0.04685
T8F00S00C0.09843
T9F00S00C0.74803
;TYPE=NON_PLATED
T10F00S00C0.07874
T11F00S00C0.12598
%
T01
X0596Y0076
X0612261Y0208261
X0604Y0222
X0592Y027
X062Y028
T02
X0626536Y0234646
Y0237993
Y0241339
Y0244686
Y0248032
Y0251379
Y0254725
Y0258072
X063185
Y0254725
Y0251379
Y0248032
Y0244686
Y0241339
Y0237993
Y0234646
T04
X0471457Y0146653
Y0156653
Y0166654
Y0176654
T05
X052563Y0294291
X053563
X054563
X055563
X056563
X057563
X058563
X059563
T06
X0441772Y0085866
Y0095866
Y0105866
Y0115866
Y0125866
Y0135866
Y0145866
Y0155866
X0451772
Y0145866
Y0135866
Y0125866
Y0115866
Y0105866
Y0095866
Y0085866
Y0165866
X0441772
Y0175866
Y0185866
Y0195866
Y0205866
Y0215866
Y0225866
Y0235866
Y0245866
Y0255866
Y0265866
Y0275866
X0451772
Y0265866
Y0255866
Y0245866
Y0235866
Y0225866
Y0215866
Y0205866
Y0195866
Y0185866
Y0175866
T07
X0472Y024
X0482
Y027
X0472
T08
X0447835Y0065945
X0640748
Y0294291
X0573819Y0267717
X0510827
Y0204724
X0573819
X0447835Y0294291
T09
X0542323Y0236221
T10
X053248Y0084646
X0556102Y0108268
T11
X0544291Y0072835
X0558071Y0120079
X0530512
M30
