G04*
G04 #@! TF.GenerationSoftware,Altium Limited,Altium Designer,20.2.6 (244)*
G04*
G04 Layer_Physical_Order=1*
G04 Layer_Color=255*
%FSLAX25Y25*%
%MOIN*%
G70*
G04*
G04 #@! TF.SameCoordinates,54722894-AE61-4C59-B5F0-4C27AF3D34EB*
G04*
G04*
G04 #@! TF.FilePolarity,Positive*
G04*
G01*
G75*
%ADD14C,0.01000*%
%ADD17R,0.07874X0.13780*%
%ADD18R,0.04134X0.05709*%
%ADD19R,0.08504X0.08898*%
%ADD20R,0.01181X0.02756*%
%ADD21R,0.05709X0.04134*%
%ADD22R,0.03150X0.03150*%
%ADD23R,0.05118X0.05709*%
%ADD24R,0.07874X0.07480*%
%ADD25R,0.10433X0.06890*%
%ADD26O,0.07480X0.02362*%
%ADD42C,0.06181*%
%ADD43R,0.06181X0.06181*%
%ADD48C,0.02500*%
%ADD49C,0.02559*%
%ADD50O,0.09449X0.03543*%
%ADD51O,0.06693X0.03543*%
%ADD52R,0.06693X0.06693*%
%ADD53C,0.06693*%
%ADD54C,0.05512*%
%ADD55R,0.05512X0.05512*%
%ADD56C,0.12598*%
%ADD57C,0.07874*%
%ADD58C,0.06102*%
%ADD59C,0.02362*%
G36*
X642368Y305034D02*
X644027Y304635D01*
X645604Y303982D01*
X647059Y303091D01*
X648357Y301982D01*
X649465Y300684D01*
X650357Y299229D01*
X651010Y297652D01*
X651409Y295993D01*
X651542Y294303D01*
X651540Y294291D01*
Y65945D01*
X651542Y65934D01*
X651409Y64243D01*
X651010Y62584D01*
X650357Y61007D01*
X649465Y59552D01*
X648357Y58254D01*
X647059Y57146D01*
X645604Y56254D01*
X644027Y55601D01*
X642368Y55203D01*
X641154Y55107D01*
X640666Y55072D01*
X640666Y55072D01*
X640172Y55072D01*
X447835D01*
X447823Y55069D01*
X446133Y55203D01*
X444474Y55601D01*
X442897Y56254D01*
X441442Y57146D01*
X440144Y58254D01*
X439036Y59552D01*
X438144Y61007D01*
X437491Y62584D01*
X437092Y64243D01*
X436959Y65934D01*
X436962Y65945D01*
Y294210D01*
X436959Y294221D01*
X437092Y295911D01*
X437491Y297571D01*
X438144Y299147D01*
X439036Y300603D01*
X440144Y301900D01*
X441442Y303009D01*
X442897Y303901D01*
X444474Y304554D01*
X446133Y304952D01*
X447823Y305085D01*
X447835Y305083D01*
X640748D01*
X641031Y305139D01*
X642368Y305034D01*
D02*
G37*
%LPC*%
G36*
X586630Y297763D02*
Y295291D01*
X589102D01*
X588766Y296102D01*
X588191Y296852D01*
X587441Y297428D01*
X586630Y297763D01*
D02*
G37*
G36*
X584630D02*
X583819Y297428D01*
X583069Y296852D01*
X582494Y296102D01*
X582158Y295291D01*
X584630D01*
Y297763D01*
D02*
G37*
G36*
X589102Y293291D02*
X586630D01*
Y290819D01*
X587441Y291155D01*
X588191Y291730D01*
X588766Y292481D01*
X589102Y293291D01*
D02*
G37*
G36*
X584630D02*
X582158D01*
X582494Y292481D01*
X583069Y291730D01*
X583819Y291155D01*
X584630Y290819D01*
Y293291D01*
D02*
G37*
G36*
X569102D02*
X566630D01*
Y290819D01*
X567441Y291155D01*
X568191Y291730D01*
X568766Y292481D01*
X569102Y293291D01*
D02*
G37*
G36*
X564630D02*
X562158D01*
X562494Y292481D01*
X563069Y291730D01*
X563819Y291155D01*
X564630Y290819D01*
Y293291D01*
D02*
G37*
G36*
X539102D02*
X536630D01*
Y290819D01*
X537441Y291155D01*
X538191Y291730D01*
X538766Y292481D01*
X539102Y293291D01*
D02*
G37*
G36*
X534630D02*
X532158D01*
X532494Y292481D01*
X533069Y291730D01*
X533819Y291155D01*
X534630Y290819D01*
Y293291D01*
D02*
G37*
G36*
X595630Y297913D02*
X594693Y297790D01*
X593819Y297428D01*
X593069Y296852D01*
X592494Y296102D01*
X592132Y295229D01*
X592008Y294291D01*
X592132Y293354D01*
X592494Y292481D01*
X593069Y291730D01*
X593819Y291155D01*
X594693Y290793D01*
X595630Y290670D01*
X596567Y290793D01*
X597441Y291155D01*
X598191Y291730D01*
X598766Y292481D01*
X599128Y293354D01*
X599252Y294291D01*
X599128Y295229D01*
X598766Y296102D01*
X598191Y296852D01*
X597441Y297428D01*
X596567Y297790D01*
X595630Y297913D01*
D02*
G37*
G36*
X569921Y301784D02*
X480000D01*
X479317Y301648D01*
X478738Y301262D01*
X478738Y301262D01*
X461261Y283784D01*
X447905D01*
X447223Y283648D01*
X446644Y283262D01*
X446644Y283262D01*
X442705Y279323D01*
X442699Y279326D01*
X441772Y279448D01*
X440845Y279326D01*
X439981Y278968D01*
X439239Y278399D01*
X438670Y277657D01*
X438312Y276793D01*
X438190Y275866D01*
X438312Y274939D01*
X438670Y274075D01*
X439239Y273333D01*
X439981Y272764D01*
X440845Y272406D01*
X441772Y272284D01*
X442699Y272406D01*
X443563Y272764D01*
X444304Y273333D01*
X444874Y274075D01*
X445231Y274939D01*
X445354Y275866D01*
X445231Y276793D01*
X445229Y276800D01*
X448645Y280216D01*
X462000D01*
X462683Y280351D01*
X463262Y280738D01*
X480739Y298216D01*
X521678D01*
X522039Y297882D01*
X522039Y297716D01*
Y290701D01*
X529220D01*
Y297716D01*
X529220Y297882D01*
X529582Y298216D01*
X534415D01*
X534515Y297716D01*
X533819Y297428D01*
X533069Y296852D01*
X532494Y296102D01*
X532158Y295291D01*
X539102D01*
X538766Y296102D01*
X538191Y296852D01*
X537441Y297428D01*
X536745Y297716D01*
X536845Y298216D01*
X544415D01*
X544515Y297716D01*
X543819Y297428D01*
X543069Y296852D01*
X542494Y296102D01*
X542132Y295229D01*
X542008Y294291D01*
X542132Y293354D01*
X542143Y293327D01*
X533441Y284626D01*
X494842D01*
X494842Y284626D01*
X494159Y284490D01*
X493580Y284103D01*
X483323Y273847D01*
X478154D01*
Y266154D01*
X485847D01*
Y271323D01*
X495581Y281058D01*
X534180D01*
X534863Y281193D01*
X535442Y281580D01*
X544666Y290804D01*
X544693Y290793D01*
X545630Y290670D01*
X546567Y290793D01*
X547441Y291155D01*
X548191Y291730D01*
X548766Y292481D01*
X549128Y293354D01*
X549252Y294291D01*
X549128Y295229D01*
X548766Y296102D01*
X548191Y296852D01*
X547441Y297428D01*
X546745Y297716D01*
X546845Y298216D01*
X554415D01*
X554515Y297716D01*
X553819Y297428D01*
X553069Y296852D01*
X552494Y296102D01*
X552132Y295229D01*
X552008Y294291D01*
X552132Y293354D01*
X552494Y292481D01*
X553069Y291730D01*
X553819Y291155D01*
X554693Y290793D01*
X555630Y290670D01*
X556567Y290793D01*
X557441Y291155D01*
X558191Y291730D01*
X558766Y292481D01*
X559128Y293354D01*
X559251Y294291D01*
X559128Y295229D01*
X558766Y296102D01*
X558191Y296852D01*
X557441Y297428D01*
X556745Y297716D01*
X556845Y298216D01*
X564415D01*
X564515Y297716D01*
X563819Y297428D01*
X563069Y296852D01*
X562494Y296102D01*
X562158Y295291D01*
X569102D01*
X568766Y296102D01*
X568191Y296852D01*
X567441Y297428D01*
X566745Y297716D01*
X566845Y298216D01*
X569182D01*
X572143Y295255D01*
X572132Y295229D01*
X572008Y294291D01*
X572132Y293354D01*
X572494Y292481D01*
X573069Y291730D01*
X573819Y291155D01*
X574693Y290793D01*
X575630Y290670D01*
X576567Y290793D01*
X577441Y291155D01*
X578191Y291730D01*
X578766Y292481D01*
X579128Y293354D01*
X579251Y294291D01*
X579128Y295229D01*
X578766Y296102D01*
X578191Y296852D01*
X577441Y297428D01*
X576567Y297790D01*
X575630Y297913D01*
X574693Y297790D01*
X574666Y297779D01*
X571183Y301262D01*
X570604Y301648D01*
X569921Y301784D01*
D02*
G37*
G36*
X640748Y303452D02*
X638961Y303276D01*
X637243Y302754D01*
X635659Y301908D01*
X634271Y300769D01*
X633131Y299381D01*
X632285Y297797D01*
X631764Y296078D01*
X631588Y294291D01*
X631764Y292504D01*
X632285Y290786D01*
X633131Y289202D01*
X634271Y287814D01*
X635659Y286675D01*
X637243Y285828D01*
X638961Y285307D01*
X640748Y285131D01*
X642535Y285307D01*
X644254Y285828D01*
X645837Y286675D01*
X647226Y287814D01*
X648365Y289202D01*
X649211Y290786D01*
X649732Y292504D01*
X649908Y294291D01*
X649732Y296078D01*
X649211Y297797D01*
X648365Y299381D01*
X647226Y300769D01*
X645837Y301908D01*
X644254Y302754D01*
X642535Y303276D01*
X640748Y303452D01*
D02*
G37*
G36*
X447835D02*
X446047Y303276D01*
X444329Y302754D01*
X442745Y301908D01*
X441357Y300769D01*
X440218Y299381D01*
X439371Y297797D01*
X438850Y296078D01*
X438674Y294291D01*
X438850Y292504D01*
X439371Y290786D01*
X440218Y289202D01*
X441357Y287814D01*
X442745Y286675D01*
X444329Y285828D01*
X446047Y285307D01*
X447835Y285131D01*
X449622Y285307D01*
X451340Y285828D01*
X452924Y286675D01*
X454312Y287814D01*
X455451Y289202D01*
X456298Y290786D01*
X456819Y292504D01*
X456995Y294291D01*
X456819Y296078D01*
X456298Y297797D01*
X455451Y299381D01*
X454312Y300769D01*
X452924Y301908D01*
X451340Y302754D01*
X449622Y303276D01*
X447835Y303452D01*
D02*
G37*
G36*
X636209Y283354D02*
X634642D01*
Y281000D01*
X636209D01*
Y283354D01*
D02*
G37*
G36*
X632642D02*
X631075D01*
Y281000D01*
X632642D01*
Y283354D01*
D02*
G37*
G36*
X452772Y279296D02*
Y276866D01*
X455201D01*
X454874Y277657D01*
X454304Y278399D01*
X453563Y278968D01*
X452772Y279296D01*
D02*
G37*
G36*
X450772Y279296D02*
X449981Y278968D01*
X449239Y278399D01*
X448670Y277657D01*
X448342Y276866D01*
X450772D01*
Y279296D01*
D02*
G37*
G36*
X636209Y279000D02*
X634642D01*
Y276646D01*
X636209D01*
Y279000D01*
D02*
G37*
G36*
X632642D02*
X631075D01*
Y276646D01*
X632642D01*
Y279000D01*
D02*
G37*
G36*
X628925Y283354D02*
X623791D01*
Y281784D01*
X620000D01*
X619317Y281648D01*
X618738Y281262D01*
X618352Y280683D01*
X618216Y280000D01*
X618352Y279317D01*
X618738Y278738D01*
X619317Y278351D01*
X620000Y278216D01*
X623791D01*
Y276646D01*
X628925D01*
Y283354D01*
D02*
G37*
G36*
Y275354D02*
X627358D01*
Y273000D01*
X628925D01*
Y275354D01*
D02*
G37*
G36*
X625358D02*
X623791D01*
Y273000D01*
X625358D01*
Y275354D01*
D02*
G37*
G36*
X455201Y274866D02*
X452772D01*
Y272437D01*
X453563Y272764D01*
X454304Y273333D01*
X454874Y274075D01*
X455201Y274866D01*
D02*
G37*
G36*
X450772D02*
X448342D01*
X448670Y274075D01*
X449239Y273333D01*
X449981Y272764D01*
X450772Y272437D01*
Y274866D01*
D02*
G37*
G36*
X473000Y273748D02*
Y271000D01*
X475748D01*
X475747Y271004D01*
X475360Y271940D01*
X474743Y272743D01*
X473940Y273360D01*
X473004Y273747D01*
X473000Y273748D01*
D02*
G37*
G36*
X471000D02*
X470996Y273747D01*
X470060Y273360D01*
X469257Y272743D01*
X468640Y271940D01*
X468253Y271004D01*
X468252Y271000D01*
X471000D01*
Y273748D01*
D02*
G37*
G36*
X628925Y271000D02*
X627358D01*
Y268646D01*
X628925D01*
Y271000D01*
D02*
G37*
G36*
X625358D02*
X623791D01*
Y268646D01*
X625358D01*
Y271000D01*
D02*
G37*
G36*
X475748Y269000D02*
X473000D01*
Y266252D01*
X473004Y266253D01*
X473940Y266640D01*
X474743Y267257D01*
X475360Y268060D01*
X475747Y268996D01*
X475748Y269000D01*
D02*
G37*
G36*
X471000D02*
X468252D01*
X468253Y268996D01*
X468640Y268060D01*
X469257Y267257D01*
X470060Y266640D01*
X470996Y266253D01*
X471000Y266252D01*
Y269000D01*
D02*
G37*
G36*
X645276Y265703D02*
X644701D01*
Y264387D01*
X647339D01*
X646913Y265024D01*
X646162Y265526D01*
X645276Y265703D01*
D02*
G37*
G36*
X633347D02*
X631394D01*
Y264387D01*
X635410D01*
X634984Y265024D01*
X634233Y265526D01*
X633347Y265703D01*
D02*
G37*
G36*
X629394D02*
X627441D01*
X626554Y265526D01*
X625803Y265024D01*
X625377Y264387D01*
X629394D01*
Y265703D01*
D02*
G37*
G36*
X451772Y269448D02*
X450845Y269326D01*
X449981Y268968D01*
X449239Y268399D01*
X448670Y267657D01*
X448312Y266793D01*
X448190Y265866D01*
X448312Y264939D01*
X448670Y264075D01*
X449239Y263333D01*
X449981Y262764D01*
X450845Y262406D01*
X451772Y262284D01*
X452699Y262406D01*
X453563Y262764D01*
X454304Y263333D01*
X454874Y264075D01*
X455231Y264939D01*
X455353Y265866D01*
X455231Y266793D01*
X454874Y267657D01*
X454304Y268399D01*
X453563Y268968D01*
X452699Y269326D01*
X451772Y269448D01*
D02*
G37*
G36*
X441772D02*
X440845Y269326D01*
X439981Y268968D01*
X439239Y268399D01*
X438670Y267657D01*
X438312Y266793D01*
X438190Y265866D01*
X438312Y264939D01*
X438670Y264075D01*
X439239Y263333D01*
X439981Y262764D01*
X440845Y262406D01*
X441772Y262284D01*
X442699Y262406D01*
X443563Y262764D01*
X444304Y263333D01*
X444874Y264075D01*
X445231Y264939D01*
X445354Y265866D01*
X445231Y266793D01*
X444874Y267657D01*
X444304Y268399D01*
X443563Y268968D01*
X442699Y269326D01*
X441772Y269448D01*
D02*
G37*
G36*
X647340Y262387D02*
X644701D01*
Y261071D01*
X645276D01*
X646162Y261247D01*
X646913Y261749D01*
X647340Y262387D01*
D02*
G37*
G36*
X635410D02*
X631394D01*
Y261071D01*
X633347D01*
X634233Y261247D01*
X634984Y261749D01*
X635410Y262387D01*
D02*
G37*
G36*
X629394D02*
X625377D01*
X625803Y261749D01*
X626554Y261247D01*
X627441Y261071D01*
X629394D01*
Y262387D01*
D02*
G37*
G36*
X627536Y259544D02*
Y259072D01*
X628008D01*
X627819Y259355D01*
X627536Y259544D01*
D02*
G37*
G36*
X625536D02*
X625253Y259355D01*
X625064Y259072D01*
X625536D01*
Y259544D01*
D02*
G37*
G36*
X632850Y259544D02*
Y259072D01*
X633322D01*
X633133Y259355D01*
X632850Y259544D01*
D02*
G37*
G36*
X630850Y259544D02*
X630567Y259355D01*
X630378Y259072D01*
X630850D01*
Y259544D01*
D02*
G37*
G36*
X636209Y275354D02*
X631075D01*
Y268646D01*
X633685D01*
X636216Y266115D01*
Y256739D01*
X634119Y254642D01*
X633636Y254867D01*
X633526Y255419D01*
X633133Y256008D01*
X632923Y256148D01*
Y256648D01*
X633133Y256789D01*
X633322Y257072D01*
X631850D01*
X630378D01*
X630420Y257009D01*
X630154Y256509D01*
X628232D01*
X627966Y257009D01*
X628008Y257072D01*
X626536D01*
X625064D01*
X625106Y257009D01*
X624840Y256509D01*
X614902D01*
Y265390D01*
X606028D01*
Y250610D01*
X614902D01*
Y252940D01*
X618059D01*
Y243746D01*
X618195Y243064D01*
X618582Y242485D01*
X624325Y236742D01*
X624325Y236742D01*
X624903Y236355D01*
X624973Y236342D01*
X625051Y236226D01*
X625163Y235794D01*
X625064Y235646D01*
X626536D01*
X628008D01*
X627966Y235708D01*
X628232Y236208D01*
X630154D01*
X630420Y235708D01*
X630378Y235646D01*
X631850D01*
X633322D01*
X633133Y235929D01*
X632923Y236069D01*
Y236569D01*
X633133Y236710D01*
X633526Y237298D01*
X633664Y237993D01*
X633526Y238687D01*
X633133Y239276D01*
X632923Y239416D01*
Y239916D01*
X633133Y240056D01*
X633526Y240644D01*
X633664Y241339D01*
X633526Y242033D01*
X633133Y242622D01*
X632923Y242762D01*
Y243262D01*
X633133Y243403D01*
X633526Y243991D01*
X633664Y244686D01*
X633526Y245380D01*
X633133Y245969D01*
X632923Y246109D01*
Y246609D01*
X633133Y246749D01*
X633526Y247337D01*
X633664Y248032D01*
X633526Y248726D01*
X633273Y249106D01*
X633324Y249327D01*
X633497Y249627D01*
X634073Y249742D01*
X634652Y250128D01*
X639262Y254738D01*
X639648Y255317D01*
X639784Y256000D01*
X639784Y256000D01*
Y261903D01*
X640284Y262054D01*
X640488Y261749D01*
X641240Y261247D01*
X642126Y261071D01*
X642701D01*
Y263387D01*
Y265703D01*
X642126D01*
X641240Y265526D01*
X640488Y265024D01*
X640284Y264719D01*
X639784Y264871D01*
Y266854D01*
X639648Y267537D01*
X639262Y268116D01*
X639262Y268116D01*
X636209Y271169D01*
Y275354D01*
D02*
G37*
G36*
X451772Y259448D02*
X450845Y259326D01*
X449981Y258968D01*
X449239Y258399D01*
X448670Y257657D01*
X448312Y256793D01*
X448190Y255866D01*
X448312Y254939D01*
X448670Y254075D01*
X449239Y253333D01*
X449981Y252764D01*
X450845Y252406D01*
X451772Y252284D01*
X452699Y252406D01*
X453563Y252764D01*
X454304Y253333D01*
X454874Y254075D01*
X455231Y254939D01*
X455353Y255866D01*
X455231Y256793D01*
X454874Y257657D01*
X454304Y258399D01*
X453563Y258968D01*
X452699Y259326D01*
X451772Y259448D01*
D02*
G37*
G36*
X441772D02*
X440845Y259326D01*
X439981Y258968D01*
X439239Y258399D01*
X438670Y257657D01*
X438312Y256793D01*
X438190Y255866D01*
X438312Y254939D01*
X438670Y254075D01*
X439239Y253333D01*
X439981Y252764D01*
X440845Y252406D01*
X441772Y252284D01*
X442699Y252406D01*
X443563Y252764D01*
X444304Y253333D01*
X444874Y254075D01*
X445231Y254939D01*
X445354Y255866D01*
X445231Y256793D01*
X444874Y257657D01*
X444304Y258399D01*
X443563Y258968D01*
X442699Y259326D01*
X441772Y259448D01*
D02*
G37*
G36*
X442772Y249296D02*
Y246866D01*
X445201D01*
X444874Y247657D01*
X444304Y248399D01*
X443563Y248968D01*
X442772Y249296D01*
D02*
G37*
G36*
X440772Y249296D02*
X439981Y248968D01*
X439239Y248399D01*
X438670Y247657D01*
X438342Y246866D01*
X440772D01*
Y249296D01*
D02*
G37*
G36*
X445201Y244866D02*
X442772D01*
Y242437D01*
X443563Y242764D01*
X444304Y243333D01*
X444874Y244075D01*
X445201Y244866D01*
D02*
G37*
G36*
X440772D02*
X438342D01*
X438670Y244075D01*
X439239Y243333D01*
X439981Y242764D01*
X440772Y242437D01*
Y244866D01*
D02*
G37*
G36*
X451772Y249448D02*
X450845Y249326D01*
X449981Y248968D01*
X449239Y248399D01*
X448670Y247657D01*
X448312Y246793D01*
X448190Y245866D01*
X448312Y244939D01*
X448670Y244075D01*
X449239Y243333D01*
X449981Y242764D01*
X450845Y242406D01*
X451772Y242284D01*
X452699Y242406D01*
X453563Y242764D01*
X454304Y243333D01*
X454874Y244075D01*
X455231Y244939D01*
X455353Y245866D01*
X455231Y246793D01*
X454874Y247657D01*
X454304Y248399D01*
X453563Y248968D01*
X452699Y249326D01*
X451772Y249448D01*
D02*
G37*
G36*
X616398Y242949D02*
X612646D01*
Y239000D01*
X616398D01*
Y242949D01*
D02*
G37*
G36*
X610646D02*
X606894D01*
Y239000D01*
X610646D01*
Y242949D01*
D02*
G37*
G36*
X630850Y233646D02*
X630378D01*
X630567Y233363D01*
X630850Y233174D01*
Y233646D01*
D02*
G37*
G36*
X628008Y233646D02*
X627536D01*
Y233174D01*
X627819Y233363D01*
X628008Y233646D01*
D02*
G37*
G36*
X625536D02*
X625064D01*
X625253Y233363D01*
X625536Y233174D01*
Y233646D01*
D02*
G37*
G36*
X633322Y233646D02*
X632850D01*
Y233174D01*
X633133Y233363D01*
X633322Y233646D01*
D02*
G37*
G36*
X616398Y237000D02*
X612646D01*
Y233051D01*
X616398D01*
Y237000D01*
D02*
G37*
G36*
X610646D02*
X606894D01*
Y233051D01*
X610646D01*
Y237000D01*
D02*
G37*
G36*
X592000Y271784D02*
X591317Y271649D01*
X590738Y271262D01*
X590351Y270683D01*
X590216Y270000D01*
X590351Y269317D01*
X590738Y268738D01*
X591751Y267725D01*
Y265390D01*
X589098D01*
Y250610D01*
X591751D01*
Y242949D01*
X587602D01*
Y233051D01*
X597106D01*
Y242949D01*
X595320D01*
Y250610D01*
X597972D01*
Y265390D01*
X595320D01*
Y268464D01*
X595320Y268465D01*
X595184Y269147D01*
X594797Y269726D01*
X594797Y269726D01*
X593262Y271262D01*
X592683Y271649D01*
X592000Y271784D01*
D02*
G37*
G36*
X451772Y239448D02*
X450845Y239326D01*
X449981Y238968D01*
X449239Y238399D01*
X448670Y237657D01*
X448312Y236793D01*
X448190Y235866D01*
X448312Y234939D01*
X448670Y234075D01*
X449239Y233333D01*
X449981Y232764D01*
X450845Y232406D01*
X451772Y232284D01*
X452699Y232406D01*
X453563Y232764D01*
X454304Y233333D01*
X454874Y234075D01*
X455231Y234939D01*
X455353Y235866D01*
X455231Y236793D01*
X454874Y237657D01*
X454304Y238399D01*
X453563Y238968D01*
X452699Y239326D01*
X451772Y239448D01*
D02*
G37*
G36*
X441772D02*
X440845Y239326D01*
X439981Y238968D01*
X439239Y238399D01*
X438670Y237657D01*
X438312Y236793D01*
X438190Y235866D01*
X438312Y234939D01*
X438670Y234075D01*
X439239Y233333D01*
X439981Y232764D01*
X440845Y232406D01*
X441772Y232284D01*
X442699Y232406D01*
X443563Y232764D01*
X444304Y233333D01*
X444874Y234075D01*
X445231Y234939D01*
X445354Y235866D01*
X445231Y236793D01*
X444874Y237657D01*
X444304Y238399D01*
X443563Y238968D01*
X442699Y239326D01*
X441772Y239448D01*
D02*
G37*
G36*
X645276Y231647D02*
X644701D01*
Y230331D01*
X647339D01*
X646913Y230968D01*
X646162Y231470D01*
X645276Y231647D01*
D02*
G37*
G36*
X633347D02*
X631394D01*
Y230331D01*
X635410D01*
X634984Y230968D01*
X634233Y231470D01*
X633347Y231647D01*
D02*
G37*
G36*
X642701D02*
X642126D01*
X641240Y231470D01*
X640488Y230968D01*
X640062Y230331D01*
X642701D01*
Y231647D01*
D02*
G37*
G36*
X629394D02*
X627441D01*
X626554Y231470D01*
X625803Y230968D01*
X625377Y230331D01*
X629394D01*
Y231647D01*
D02*
G37*
G36*
X647340Y228331D02*
X644701D01*
Y227015D01*
X645276D01*
X646162Y227191D01*
X646913Y227693D01*
X647340Y228331D01*
D02*
G37*
G36*
X642701D02*
X640062D01*
X640488Y227693D01*
X641240Y227191D01*
X642126Y227015D01*
X642701D01*
Y228331D01*
D02*
G37*
G36*
X635410D02*
X631394D01*
Y227015D01*
X633347D01*
X634233Y227191D01*
X634984Y227693D01*
X635410Y228331D01*
D02*
G37*
G36*
X629394D02*
X625377D01*
X625803Y227693D01*
X626554Y227191D01*
X627441Y227015D01*
X629394D01*
Y228331D01*
D02*
G37*
G36*
X442772Y229296D02*
Y226866D01*
X445201D01*
X444874Y227657D01*
X444304Y228399D01*
X443563Y228968D01*
X442772Y229296D01*
D02*
G37*
G36*
X440772Y229296D02*
X439981Y228968D01*
X439239Y228399D01*
X438670Y227657D01*
X438342Y226866D01*
X440772D01*
Y229296D01*
D02*
G37*
G36*
X445201Y224866D02*
X442772D01*
Y222437D01*
X443563Y222764D01*
X444304Y223333D01*
X444874Y224075D01*
X445201Y224866D01*
D02*
G37*
G36*
X440772D02*
X438342D01*
X438670Y224075D01*
X439239Y223333D01*
X439981Y222764D01*
X440772Y222437D01*
Y224866D01*
D02*
G37*
G36*
X451772Y229448D02*
X450845Y229326D01*
X449981Y228968D01*
X449239Y228399D01*
X448670Y227657D01*
X448312Y226793D01*
X448190Y225866D01*
X448312Y224939D01*
X448670Y224075D01*
X449239Y223333D01*
X449981Y222764D01*
X450845Y222406D01*
X451772Y222284D01*
X452699Y222406D01*
X453563Y222764D01*
X454304Y223333D01*
X454874Y224075D01*
X455231Y224939D01*
X455353Y225866D01*
X455231Y226793D01*
X454874Y227657D01*
X454304Y228399D01*
X453563Y228968D01*
X452699Y229326D01*
X451772Y229448D01*
D02*
G37*
G36*
X624043Y221193D02*
X623953D01*
Y220315D01*
X624043D01*
Y221193D01*
D02*
G37*
G36*
X616047D02*
X615957D01*
Y220315D01*
X616047D01*
Y221193D01*
D02*
G37*
G36*
X475846Y243847D02*
X468153D01*
Y236154D01*
X470216D01*
Y221945D01*
X463819D01*
Y214055D01*
X475252D01*
Y221945D01*
X473784D01*
Y236154D01*
X475846D01*
Y243847D01*
D02*
G37*
G36*
X441772Y219448D02*
X440845Y219326D01*
X439981Y218968D01*
X439239Y218399D01*
X438670Y217657D01*
X438312Y216793D01*
X438190Y215866D01*
X438312Y214939D01*
X438670Y214075D01*
X439239Y213333D01*
X439981Y212764D01*
X440845Y212406D01*
X441772Y212284D01*
X442699Y212406D01*
X443563Y212764D01*
X444304Y213333D01*
X444874Y214075D01*
X445231Y214939D01*
X445354Y215866D01*
X445231Y216793D01*
X444874Y217657D01*
X444304Y218399D01*
X443563Y218968D01*
X442699Y219326D01*
X441772Y219448D01*
D02*
G37*
G36*
X452772Y209296D02*
Y206866D01*
X455201D01*
X454874Y207657D01*
X454304Y208399D01*
X453563Y208968D01*
X452772Y209296D01*
D02*
G37*
G36*
X450772Y209296D02*
X449981Y208968D01*
X449239Y208399D01*
X448670Y207657D01*
X448342Y206866D01*
X450772D01*
Y209296D01*
D02*
G37*
G36*
X477354Y208209D02*
X475000D01*
Y206642D01*
X477354D01*
Y208209D01*
D02*
G37*
G36*
X473000D02*
X470646D01*
Y206642D01*
X473000D01*
Y208209D01*
D02*
G37*
G36*
X482000Y243880D02*
X480996Y243747D01*
X480060Y243360D01*
X479257Y242743D01*
X478640Y241940D01*
X478253Y241004D01*
X478120Y240000D01*
X478253Y238996D01*
X478640Y238060D01*
X479257Y237257D01*
X480060Y236640D01*
X480714Y236369D01*
Y220195D01*
X480748Y220023D01*
Y214055D01*
X484680D01*
Y208799D01*
X483925D01*
Y204650D01*
X488075D01*
Y206449D01*
X488113Y206506D01*
X488249Y207189D01*
Y214055D01*
X492181D01*
Y221945D01*
X484282D01*
Y236903D01*
X484743Y237257D01*
X485360Y238060D01*
X485747Y238996D01*
X485880Y240000D01*
X485747Y241004D01*
X485360Y241940D01*
X484743Y242743D01*
X483940Y243360D01*
X483004Y243747D01*
X482000Y243880D01*
D02*
G37*
G36*
X477354Y204642D02*
X475000D01*
Y203075D01*
X477354D01*
Y204642D01*
D02*
G37*
G36*
X473000D02*
X470646D01*
Y203075D01*
X473000D01*
Y204642D01*
D02*
G37*
G36*
X451772Y219448D02*
X450845Y219326D01*
X449981Y218968D01*
X449239Y218399D01*
X448670Y217657D01*
X448312Y216793D01*
X448190Y215866D01*
X448312Y214939D01*
X448670Y214075D01*
X449239Y213333D01*
X449981Y212764D01*
X450845Y212406D01*
X451772Y212284D01*
X452699Y212406D01*
X452705Y212409D01*
X459917Y205197D01*
X460496Y204810D01*
X461179Y204674D01*
X462646D01*
Y203075D01*
X469354D01*
Y208209D01*
X465355D01*
X465183Y208243D01*
X461918D01*
X455229Y214932D01*
X455231Y214939D01*
X455353Y215866D01*
X455231Y216793D01*
X454874Y217657D01*
X454304Y218399D01*
X453563Y218968D01*
X452699Y219326D01*
X451772Y219448D01*
D02*
G37*
G36*
X455201Y204866D02*
X452772D01*
Y202437D01*
X453563Y202764D01*
X454304Y203333D01*
X454874Y204075D01*
X455201Y204866D01*
D02*
G37*
G36*
X450772D02*
X448342D01*
X448670Y204075D01*
X449239Y203333D01*
X449981Y202764D01*
X450772Y202437D01*
Y204866D01*
D02*
G37*
G36*
X441772Y209448D02*
X440845Y209326D01*
X439981Y208968D01*
X439239Y208399D01*
X438670Y207657D01*
X438312Y206793D01*
X438190Y205866D01*
X438312Y204939D01*
X438670Y204075D01*
X439239Y203333D01*
X439981Y202764D01*
X440845Y202406D01*
X441772Y202284D01*
X442699Y202406D01*
X443563Y202764D01*
X444304Y203333D01*
X444874Y204075D01*
X445231Y204939D01*
X445354Y205866D01*
X445231Y206793D01*
X444874Y207657D01*
X444304Y208399D01*
X443563Y208968D01*
X442699Y209326D01*
X441772Y209448D01*
D02*
G37*
G36*
X477354Y200925D02*
X470646D01*
Y200143D01*
X469354D01*
Y200925D01*
X462646D01*
Y195791D01*
X469354D01*
Y196574D01*
X470646D01*
Y195791D01*
X477354D01*
Y196574D01*
X480185D01*
Y195201D01*
X484335D01*
Y199350D01*
X482708D01*
X482439Y199620D01*
X481860Y200007D01*
X481177Y200143D01*
X477354D01*
Y200925D01*
D02*
G37*
G36*
X491815Y199350D02*
X490740D01*
Y198276D01*
X491815D01*
Y199350D01*
D02*
G37*
G36*
X488740D02*
X487665D01*
Y198276D01*
X488740D01*
Y199350D01*
D02*
G37*
G36*
X581693Y276610D02*
X502953D01*
X502563Y276533D01*
X502232Y276311D01*
X502011Y275981D01*
X501933Y275590D01*
Y196850D01*
X502011Y196460D01*
X502232Y196129D01*
X502563Y195908D01*
X502953Y195831D01*
X581693D01*
X582083Y195908D01*
X582414Y196129D01*
X582635Y196460D01*
X582713Y196850D01*
Y275590D01*
X582635Y275981D01*
X582414Y276311D01*
X582083Y276533D01*
X581693Y276610D01*
D02*
G37*
G36*
X491815Y196276D02*
X490740D01*
Y195201D01*
X491815D01*
Y196276D01*
D02*
G37*
G36*
X488740D02*
X487665D01*
Y195201D01*
X488740D01*
Y196276D01*
D02*
G37*
G36*
X441772Y199448D02*
X440845Y199326D01*
X439981Y198968D01*
X439239Y198399D01*
X438670Y197657D01*
X438312Y196793D01*
X438190Y195866D01*
X438312Y194939D01*
X438670Y194075D01*
X439239Y193333D01*
X439981Y192764D01*
X440845Y192406D01*
X441772Y192284D01*
X442699Y192406D01*
X443563Y192764D01*
X444304Y193333D01*
X444874Y194075D01*
X445231Y194939D01*
X445354Y195866D01*
X445231Y196793D01*
X444874Y197657D01*
X444304Y198399D01*
X443563Y198968D01*
X442699Y199326D01*
X441772Y199448D01*
D02*
G37*
G36*
X641815Y193350D02*
X640740D01*
Y192276D01*
X641815D01*
Y193350D01*
D02*
G37*
G36*
X609815D02*
X608740D01*
Y192276D01*
X609815D01*
Y193350D01*
D02*
G37*
G36*
X638740D02*
X637665D01*
Y192276D01*
X638740D01*
Y193350D01*
D02*
G37*
G36*
X606740D02*
X605665D01*
Y192276D01*
X606740D01*
Y193350D01*
D02*
G37*
G36*
X451772Y199448D02*
X450845Y199326D01*
X449981Y198968D01*
X449239Y198399D01*
X448670Y197657D01*
X448312Y196793D01*
X448190Y195866D01*
X448312Y194939D01*
X448670Y194075D01*
X449239Y193333D01*
X449736Y192952D01*
X449567Y192452D01*
X446589D01*
X445906Y192316D01*
X445327Y191929D01*
X445327Y191929D01*
X442717Y189319D01*
X442699Y189326D01*
X441772Y189448D01*
X440845Y189326D01*
X439981Y188968D01*
X439239Y188399D01*
X438670Y187657D01*
X438312Y186793D01*
X438190Y185866D01*
X438312Y184939D01*
X438670Y184075D01*
X439239Y183333D01*
X439981Y182764D01*
X440845Y182406D01*
X441772Y182284D01*
X442699Y182406D01*
X443563Y182764D01*
X444304Y183333D01*
X444874Y184075D01*
X445231Y184939D01*
X445354Y185866D01*
X445232Y186787D01*
X447328Y188883D01*
X449092D01*
X449200Y188565D01*
X449227Y188383D01*
X448670Y187657D01*
X448312Y186793D01*
X448190Y185866D01*
X448312Y184939D01*
X448670Y184075D01*
X449239Y183333D01*
X449981Y182764D01*
X450845Y182406D01*
X451772Y182284D01*
X452699Y182406D01*
X453563Y182764D01*
X454304Y183333D01*
X454874Y184075D01*
X455231Y184939D01*
X455353Y185866D01*
X455231Y186793D01*
X454874Y187657D01*
X454317Y188383D01*
X454343Y188565D01*
X454451Y188883D01*
X580594D01*
X593947Y175530D01*
X593947Y175530D01*
X594526Y175143D01*
X595209Y175007D01*
X596646D01*
Y173791D01*
X603354D01*
Y178925D01*
X596646D01*
Y178576D01*
X595948D01*
X582594Y191929D01*
X582016Y192316D01*
X581333Y192452D01*
X453976D01*
X453807Y192952D01*
X454304Y193333D01*
X454874Y194075D01*
X455231Y194939D01*
X455353Y195866D01*
X455231Y196793D01*
X454874Y197657D01*
X454304Y198399D01*
X453563Y198968D01*
X452699Y199326D01*
X451772Y199448D01*
D02*
G37*
G36*
X641815Y190276D02*
X640740D01*
Y189201D01*
X641815D01*
Y190276D01*
D02*
G37*
G36*
X638740D02*
X637665D01*
Y189201D01*
X638740D01*
Y190276D01*
D02*
G37*
G36*
X609815D02*
X608740D01*
Y189201D01*
X609815D01*
Y190276D01*
D02*
G37*
G36*
X606740D02*
X605665D01*
Y189201D01*
X606740D01*
Y190276D01*
D02*
G37*
G36*
X634335Y193350D02*
X630185D01*
Y189201D01*
X630346D01*
Y186209D01*
X628646D01*
Y181075D01*
X635354D01*
Y181857D01*
X636646D01*
Y181075D01*
X643354D01*
Y186209D01*
X636646D01*
Y185426D01*
X635354D01*
Y186209D01*
X633914D01*
Y189201D01*
X634335D01*
Y193350D01*
D02*
G37*
G36*
X602335D02*
X598185D01*
Y189201D01*
X598346D01*
Y186209D01*
X596646D01*
Y181075D01*
X603354D01*
Y181857D01*
X604646D01*
Y181075D01*
X611354D01*
Y186209D01*
X604646D01*
Y185426D01*
X603354D01*
Y186209D01*
X601914D01*
Y189201D01*
X602335D01*
Y193350D01*
D02*
G37*
G36*
X611354Y178925D02*
X609000D01*
Y177358D01*
X611354D01*
Y178925D01*
D02*
G37*
G36*
X643354D02*
X641000D01*
Y177358D01*
X643354D01*
Y178925D01*
D02*
G37*
G36*
X607000D02*
X604646D01*
Y177358D01*
X607000D01*
Y178925D01*
D02*
G37*
G36*
X639000D02*
X636646D01*
Y177358D01*
X639000D01*
Y178925D01*
D02*
G37*
G36*
X442772Y179296D02*
Y176866D01*
X445201D01*
X444874Y177657D01*
X444304Y178399D01*
X443563Y178968D01*
X442772Y179296D01*
D02*
G37*
G36*
X440772Y179296D02*
X439981Y178968D01*
X439239Y178399D01*
X438670Y177657D01*
X438342Y176866D01*
X440772D01*
Y179296D01*
D02*
G37*
G36*
X643354Y175358D02*
X641000D01*
Y173791D01*
X643354D01*
Y175358D01*
D02*
G37*
G36*
X639000D02*
X636646D01*
Y173791D01*
X639000D01*
Y175358D01*
D02*
G37*
G36*
X611354D02*
X609000D01*
Y173791D01*
X611354D01*
Y175358D01*
D02*
G37*
G36*
X607000D02*
X604646D01*
Y173791D01*
X607000D01*
Y175358D01*
D02*
G37*
G36*
X471457Y179938D02*
X470607Y179826D01*
X469815Y179498D01*
X469135Y178976D01*
X468613Y178296D01*
X468285Y177504D01*
X468173Y176654D01*
X468285Y175804D01*
X468613Y175012D01*
X469135Y174331D01*
X469815Y173810D01*
X470607Y173481D01*
X471457Y173370D01*
X472307Y173481D01*
X473099Y173810D01*
X473779Y174331D01*
X474301Y175012D01*
X474629Y175804D01*
X474741Y176654D01*
X474629Y177504D01*
X474301Y178296D01*
X473779Y178976D01*
X473099Y179498D01*
X472307Y179826D01*
X471457Y179938D01*
D02*
G37*
G36*
X445201Y174866D02*
X442772D01*
Y172437D01*
X443563Y172764D01*
X444304Y173333D01*
X444874Y174075D01*
X445201Y174866D01*
D02*
G37*
G36*
X440772D02*
X438342D01*
X438670Y174075D01*
X439239Y173333D01*
X439981Y172764D01*
X440772Y172437D01*
Y174866D01*
D02*
G37*
G36*
X451772Y179448D02*
X450845Y179326D01*
X449981Y178968D01*
X449239Y178399D01*
X448670Y177657D01*
X448312Y176793D01*
X448190Y175866D01*
X448312Y174939D01*
X448670Y174075D01*
X449239Y173333D01*
X449981Y172764D01*
X450845Y172406D01*
X451772Y172284D01*
X452699Y172406D01*
X453563Y172764D01*
X454304Y173333D01*
X454874Y174075D01*
X455231Y174939D01*
X455353Y175866D01*
X455231Y176793D01*
X454874Y177657D01*
X454304Y178399D01*
X453563Y178968D01*
X452699Y179326D01*
X451772Y179448D01*
D02*
G37*
G36*
X471457Y169938D02*
X470607Y169826D01*
X469815Y169498D01*
X469135Y168976D01*
X468613Y168296D01*
X468285Y167503D01*
X468173Y166654D01*
X468285Y165804D01*
X468613Y165012D01*
X469135Y164331D01*
X469815Y163810D01*
X470607Y163481D01*
X471457Y163370D01*
X472307Y163481D01*
X473099Y163810D01*
X473779Y164331D01*
X474301Y165012D01*
X474629Y165804D01*
X474741Y166654D01*
X474629Y167503D01*
X474301Y168296D01*
X473779Y168976D01*
X473099Y169498D01*
X472307Y169826D01*
X471457Y169938D01*
D02*
G37*
G36*
X441772Y169448D02*
X440845Y169326D01*
X439981Y168968D01*
X439239Y168399D01*
X438670Y167657D01*
X438312Y166793D01*
X438190Y165866D01*
X438312Y164939D01*
X438670Y164075D01*
X439239Y163333D01*
X439981Y162764D01*
X440845Y162406D01*
X441772Y162284D01*
X442699Y162406D01*
X443563Y162764D01*
X444304Y163333D01*
X444874Y164075D01*
X445231Y164939D01*
X445354Y165866D01*
X445231Y166793D01*
X444874Y167657D01*
X444304Y168399D01*
X443563Y168968D01*
X442699Y169326D01*
X441772Y169448D01*
D02*
G37*
G36*
X451772D02*
X450845Y169326D01*
X449981Y168968D01*
X449239Y168399D01*
X448670Y167657D01*
X448312Y166793D01*
X448190Y165866D01*
X448312Y164939D01*
X448670Y164075D01*
X449239Y163333D01*
X449981Y162764D01*
X450845Y162406D01*
X451772Y162284D01*
X452699Y162406D01*
X452705Y162409D01*
X459723Y155392D01*
X460301Y155005D01*
X460984Y154869D01*
X460984Y154869D01*
X468722D01*
X469135Y154331D01*
X469815Y153809D01*
X470607Y153481D01*
X471457Y153369D01*
X472307Y153481D01*
X473099Y153809D01*
X473779Y154331D01*
X474301Y155011D01*
X474629Y155804D01*
X474741Y156653D01*
X474629Y157503D01*
X474301Y158296D01*
X473779Y158976D01*
X473099Y159498D01*
X472307Y159826D01*
X471457Y159938D01*
X470607Y159826D01*
X469815Y159498D01*
X469135Y158976D01*
X468722Y158438D01*
X461723D01*
X455229Y164933D01*
X455231Y164939D01*
X455353Y165866D01*
X455231Y166793D01*
X454874Y167657D01*
X454304Y168399D01*
X453563Y168968D01*
X452699Y169326D01*
X451772Y169448D01*
D02*
G37*
G36*
Y159448D02*
X450845Y159326D01*
X449981Y158968D01*
X449239Y158399D01*
X448670Y157657D01*
X448312Y156793D01*
X448190Y155866D01*
X448312Y154939D01*
X448670Y154075D01*
X449239Y153333D01*
X449981Y152764D01*
X450845Y152406D01*
X451772Y152284D01*
X452699Y152406D01*
X453563Y152764D01*
X454304Y153333D01*
X454874Y154075D01*
X455231Y154939D01*
X455353Y155866D01*
X455231Y156793D01*
X454874Y157657D01*
X454304Y158399D01*
X453563Y158968D01*
X452699Y159326D01*
X451772Y159448D01*
D02*
G37*
G36*
X441772D02*
X440845Y159326D01*
X439981Y158968D01*
X439239Y158399D01*
X438670Y157657D01*
X438312Y156793D01*
X438190Y155866D01*
X438312Y154939D01*
X438670Y154075D01*
X439239Y153333D01*
X439981Y152764D01*
X440845Y152406D01*
X441772Y152284D01*
X442699Y152406D01*
X443563Y152764D01*
X444304Y153333D01*
X444874Y154075D01*
X445231Y154939D01*
X445354Y155866D01*
X445231Y156793D01*
X444874Y157657D01*
X444304Y158399D01*
X443563Y158968D01*
X442699Y159326D01*
X441772Y159448D01*
D02*
G37*
G36*
X474713Y149909D02*
X472457D01*
Y147653D01*
X474713D01*
Y149909D01*
D02*
G37*
G36*
X470457D02*
X468201D01*
Y147653D01*
X470457D01*
Y149909D01*
D02*
G37*
G36*
X442772Y149296D02*
Y146866D01*
X445201D01*
X444874Y147657D01*
X444304Y148399D01*
X443563Y148968D01*
X442772Y149296D01*
D02*
G37*
G36*
X440772Y149296D02*
X439981Y148968D01*
X439239Y148399D01*
X438670Y147657D01*
X438342Y146866D01*
X440772D01*
Y149296D01*
D02*
G37*
G36*
X474713Y145653D02*
X472457D01*
Y143398D01*
X474713D01*
Y145653D01*
D02*
G37*
G36*
X470457D02*
X468201D01*
Y143398D01*
X470457D01*
Y145653D01*
D02*
G37*
G36*
X445201Y144866D02*
X442772D01*
Y142437D01*
X443563Y142764D01*
X444304Y143333D01*
X444874Y144075D01*
X445201Y144866D01*
D02*
G37*
G36*
X440772D02*
X438342D01*
X438670Y144075D01*
X439239Y143333D01*
X439981Y142764D01*
X440772Y142437D01*
Y144866D01*
D02*
G37*
G36*
X451772Y149448D02*
X450845Y149326D01*
X449981Y148968D01*
X449239Y148399D01*
X448670Y147657D01*
X448312Y146793D01*
X448190Y145866D01*
X448312Y144939D01*
X448670Y144075D01*
X449239Y143333D01*
X449981Y142764D01*
X450845Y142406D01*
X451772Y142284D01*
X452699Y142406D01*
X453563Y142764D01*
X454304Y143333D01*
X454874Y144075D01*
X455231Y144939D01*
X455353Y145866D01*
X455231Y146793D01*
X454874Y147657D01*
X454304Y148399D01*
X453563Y148968D01*
X452699Y149326D01*
X451772Y149448D01*
D02*
G37*
G36*
X635354Y178925D02*
X628646D01*
Y173791D01*
X630216D01*
Y170928D01*
X596938Y137650D01*
X454876D01*
X454874Y137657D01*
X454304Y138399D01*
X453563Y138968D01*
X452699Y139326D01*
X451772Y139448D01*
X450845Y139326D01*
X449981Y138968D01*
X449239Y138399D01*
X448670Y137657D01*
X448312Y136793D01*
X448190Y135866D01*
X448312Y134939D01*
X448670Y134075D01*
X449239Y133333D01*
X449736Y132952D01*
X449567Y132452D01*
X447710D01*
X445229Y134932D01*
X445231Y134939D01*
X445354Y135866D01*
X445231Y136793D01*
X444874Y137657D01*
X444304Y138399D01*
X443563Y138968D01*
X442699Y139326D01*
X441772Y139448D01*
X440845Y139326D01*
X439981Y138968D01*
X439239Y138399D01*
X438670Y137657D01*
X438312Y136793D01*
X438190Y135866D01*
X438312Y134939D01*
X438670Y134075D01*
X439239Y133333D01*
X439981Y132764D01*
X440845Y132406D01*
X441772Y132284D01*
X442699Y132406D01*
X442705Y132409D01*
X445709Y129406D01*
X446288Y129019D01*
X446971Y128883D01*
X449092D01*
X449200Y128565D01*
X449227Y128383D01*
X448670Y127657D01*
X448342Y126866D01*
X451772D01*
X455201D01*
X454874Y127657D01*
X454317Y128383D01*
X454343Y128565D01*
X454451Y128883D01*
X495365D01*
X510327Y113921D01*
Y107965D01*
X519201D01*
Y116445D01*
X512850D01*
X497366Y131929D01*
X496787Y132316D01*
X496104Y132452D01*
X453976D01*
X453807Y132952D01*
X454304Y133333D01*
X454874Y134075D01*
X454876Y134082D01*
X563261D01*
X572035Y125308D01*
Y116445D01*
X569382D01*
Y107965D01*
X578256D01*
Y116445D01*
X575603D01*
Y126047D01*
X575467Y126730D01*
X575081Y127309D01*
X568770Y133620D01*
X568961Y134082D01*
X597677D01*
X598360Y134218D01*
X598939Y134604D01*
X633262Y168927D01*
X633262Y168927D01*
X633648Y169506D01*
X633784Y170189D01*
X633784Y170189D01*
Y173791D01*
X635354D01*
Y178925D01*
D02*
G37*
G36*
X611860Y117297D02*
X610301D01*
Y116583D01*
X613214D01*
X613072Y116795D01*
X612516Y117167D01*
X611860Y117297D01*
D02*
G37*
G36*
X608301D02*
X606742D01*
X606086Y117167D01*
X605530Y116795D01*
X605389Y116583D01*
X608301D01*
Y117297D01*
D02*
G37*
G36*
X593356D02*
X591797D01*
Y116583D01*
X594710D01*
X594568Y116795D01*
X594012Y117167D01*
X593356Y117297D01*
D02*
G37*
G36*
X589797D02*
X588238D01*
X587582Y117167D01*
X587026Y116795D01*
X586885Y116583D01*
X589797D01*
Y117297D01*
D02*
G37*
G36*
X613214Y114583D02*
X610301D01*
Y113869D01*
X611860D01*
X612516Y114000D01*
X613072Y114371D01*
X613214Y114583D01*
D02*
G37*
G36*
X608301D02*
X605388D01*
X605530Y114371D01*
X606086Y114000D01*
X606742Y113869D01*
X608301D01*
Y114583D01*
D02*
G37*
G36*
X594710Y114583D02*
X591797D01*
Y113869D01*
X593356D01*
X594012Y114000D01*
X594568Y114371D01*
X594710Y114583D01*
D02*
G37*
G36*
X589797D02*
X586885D01*
X587026Y114371D01*
X587582Y114000D01*
X588238Y113869D01*
X589797D01*
Y114583D01*
D02*
G37*
G36*
X530512Y127397D02*
X529084Y127257D01*
X527711Y126840D01*
X526446Y126164D01*
X525337Y125254D01*
X524427Y124145D01*
X523750Y122880D01*
X523334Y121507D01*
X523193Y120079D01*
X523334Y118651D01*
X523750Y117278D01*
X524427Y116013D01*
X525337Y114904D01*
X526446Y113994D01*
X527711Y113317D01*
X529084Y112901D01*
X530512Y112760D01*
X531940Y112901D01*
X533313Y113317D01*
X534578Y113994D01*
X535687Y114904D01*
X536597Y116013D01*
X537273Y117278D01*
X537690Y118651D01*
X537830Y120079D01*
X537690Y121507D01*
X537273Y122880D01*
X536597Y124145D01*
X535687Y125254D01*
X534578Y126164D01*
X533313Y126840D01*
X531940Y127257D01*
X530512Y127397D01*
D02*
G37*
G36*
X441772Y129448D02*
X440845Y129326D01*
X439981Y128968D01*
X439239Y128399D01*
X438670Y127657D01*
X438312Y126793D01*
X438190Y125866D01*
X438312Y124939D01*
X438670Y124075D01*
X439239Y123333D01*
X439981Y122764D01*
X440845Y122406D01*
X441772Y122284D01*
X442699Y122406D01*
X442705Y122409D01*
X445709Y119406D01*
X446288Y119019D01*
X446971Y118883D01*
X449092D01*
X449200Y118565D01*
X449227Y118383D01*
X448670Y117657D01*
X448312Y116793D01*
X448190Y115866D01*
X448312Y114939D01*
X448670Y114075D01*
X449239Y113333D01*
X449736Y112952D01*
X449567Y112452D01*
X447710D01*
X445229Y114933D01*
X445231Y114939D01*
X445354Y115866D01*
X445231Y116793D01*
X444874Y117657D01*
X444304Y118399D01*
X443563Y118968D01*
X442699Y119326D01*
X441772Y119448D01*
X440845Y119326D01*
X439981Y118968D01*
X439239Y118399D01*
X438670Y117657D01*
X438312Y116793D01*
X438190Y115866D01*
X438312Y114939D01*
X438670Y114075D01*
X439239Y113333D01*
X439981Y112764D01*
X440845Y112406D01*
X441772Y112284D01*
X442699Y112406D01*
X442705Y112409D01*
X445709Y109406D01*
X446288Y109019D01*
X446971Y108883D01*
X449092D01*
X449200Y108565D01*
X449227Y108383D01*
X448670Y107657D01*
X448312Y106793D01*
X448190Y105866D01*
X448312Y104939D01*
X448319Y104921D01*
X445709Y102311D01*
X445322Y101732D01*
X445186Y101049D01*
Y98071D01*
X444686Y97901D01*
X444304Y98399D01*
X443563Y98968D01*
X442699Y99326D01*
X441772Y99448D01*
X440845Y99326D01*
X439981Y98968D01*
X439239Y98399D01*
X438670Y97657D01*
X438312Y96793D01*
X438190Y95866D01*
X438312Y94939D01*
X438670Y94075D01*
X439239Y93333D01*
X439981Y92764D01*
X440845Y92406D01*
X441772Y92284D01*
X442699Y92406D01*
X443563Y92764D01*
X444304Y93333D01*
X444686Y93831D01*
X445186Y93661D01*
Y88071D01*
X444686Y87901D01*
X444304Y88399D01*
X443563Y88968D01*
X442699Y89326D01*
X441772Y89448D01*
X440845Y89326D01*
X439981Y88968D01*
X439239Y88399D01*
X438670Y87657D01*
X438312Y86793D01*
X438190Y85866D01*
X438312Y84939D01*
X438670Y84075D01*
X439239Y83333D01*
X439981Y82764D01*
X440845Y82406D01*
X441772Y82284D01*
X442699Y82406D01*
X443563Y82764D01*
X444304Y83333D01*
X444699Y83847D01*
X444760Y83851D01*
X445220Y83706D01*
X445322Y83195D01*
X445709Y82616D01*
X471586Y56738D01*
X472165Y56352D01*
X472848Y56216D01*
X472848Y56216D01*
X585004D01*
X585687Y56352D01*
X586266Y56738D01*
X610563Y81036D01*
X610950Y81615D01*
X611086Y82297D01*
X611086Y82297D01*
Y98869D01*
X611860D01*
X612516Y99000D01*
X613072Y99371D01*
X613444Y99927D01*
X613574Y100583D01*
X613444Y101239D01*
X613072Y101795D01*
X612516Y102167D01*
X611860Y102297D01*
X609654D01*
X609301Y102367D01*
X608948Y102297D01*
X606742D01*
X606086Y102167D01*
X605530Y101795D01*
X605159Y101239D01*
X605028Y100583D01*
X605159Y99927D01*
X605530Y99371D01*
X606086Y99000D01*
X606742Y98869D01*
X607517D01*
Y83036D01*
X606720Y82239D01*
X606258Y82431D01*
Y83083D01*
X604199D01*
Y80729D01*
X604556D01*
X604747Y80267D01*
X584265Y59784D01*
X570394D01*
X570345Y60284D01*
X570683Y60352D01*
X571262Y60738D01*
X592059Y81536D01*
X592059Y81536D01*
X592446Y82114D01*
X592582Y82797D01*
X592582Y82797D01*
Y98869D01*
X593356D01*
X594012Y99000D01*
X594568Y99371D01*
X594615Y99442D01*
X595115Y99290D01*
Y95438D01*
X593841D01*
Y88729D01*
X595115D01*
Y87437D01*
X593841D01*
Y80729D01*
X594216D01*
Y76000D01*
X594351Y75317D01*
X594738Y74738D01*
X595317Y74352D01*
X596000Y74216D01*
X596683Y74352D01*
X597262Y74738D01*
X597648Y75317D01*
X597784Y76000D01*
Y80729D01*
X599959D01*
Y80729D01*
X600140D01*
Y80729D01*
X602199D01*
Y84083D01*
Y87437D01*
X600140D01*
Y87438D01*
X599959D01*
Y87437D01*
X598684D01*
Y88375D01*
X599038Y88729D01*
X599959Y88729D01*
X600459Y88729D01*
X602199D01*
Y92083D01*
Y95438D01*
X600459D01*
X600140Y95438D01*
X599640Y95438D01*
X598684D01*
Y101902D01*
X598684Y101902D01*
X598548Y102585D01*
X598161Y103164D01*
X598161Y103164D01*
X594646Y106679D01*
X594568Y106795D01*
X594012Y107167D01*
X593993Y107171D01*
X593901Y107232D01*
X593219Y107368D01*
X590797D01*
X590444Y107297D01*
X588238D01*
X587582Y107167D01*
X587026Y106795D01*
X586655Y106239D01*
X586524Y105583D01*
X586655Y104927D01*
X587026Y104371D01*
X587582Y104000D01*
X588238Y103869D01*
X590444D01*
X590797Y103799D01*
X592480D01*
X593500Y102778D01*
X593415Y102494D01*
X593274Y102297D01*
X591151D01*
X590797Y102367D01*
X590444Y102297D01*
X588238D01*
X587582Y102167D01*
X587026Y101795D01*
X586655Y101239D01*
X586524Y100583D01*
X586655Y99927D01*
X587026Y99371D01*
X587582Y99000D01*
X588238Y98869D01*
X589013D01*
Y83536D01*
X569261Y63784D01*
X486377D01*
X455229Y94933D01*
X455231Y94939D01*
X455353Y95866D01*
X455231Y96793D01*
X454874Y97657D01*
X454304Y98399D01*
X453563Y98968D01*
X452699Y99326D01*
X451772Y99448D01*
X450845Y99326D01*
X449981Y98968D01*
X449255Y98411D01*
X449073Y98438D01*
X448755Y98546D01*
Y100310D01*
X450850Y102406D01*
X451772Y102284D01*
X452699Y102406D01*
X453563Y102764D01*
X454304Y103333D01*
X454874Y104075D01*
X455231Y104939D01*
X455353Y105866D01*
X455231Y106793D01*
X454874Y107657D01*
X454317Y108383D01*
X454343Y108565D01*
X454451Y108883D01*
X474594D01*
X503279Y80197D01*
X503280Y80197D01*
X503858Y79810D01*
X504541Y79675D01*
X510327D01*
Y76468D01*
X519201D01*
Y84949D01*
X510327D01*
Y83243D01*
X505280D01*
X476594Y111929D01*
X476016Y112316D01*
X475333Y112452D01*
X453976D01*
X453807Y112952D01*
X454304Y113333D01*
X454874Y114075D01*
X454876Y114082D01*
X481395D01*
X508738Y86738D01*
X509317Y86352D01*
X510000Y86216D01*
X510000Y86216D01*
X522000D01*
X522683Y86352D01*
X523262Y86738D01*
X531196Y94672D01*
X569382D01*
Y92216D01*
X578256D01*
Y100697D01*
X569382D01*
Y98241D01*
X530457D01*
X530457Y98241D01*
X529774Y98105D01*
X529195Y97718D01*
X529195Y97718D01*
X521261Y89784D01*
X510739D01*
X483396Y117128D01*
X482817Y117515D01*
X482134Y117650D01*
X454876D01*
X454874Y117657D01*
X454317Y118383D01*
X454343Y118565D01*
X454451Y118883D01*
X489617D01*
X510327Y98173D01*
Y92216D01*
X519201D01*
Y100697D01*
X512850D01*
X491618Y121929D01*
X491039Y122316D01*
X490356Y122452D01*
X453976D01*
X453807Y122952D01*
X454304Y123333D01*
X454874Y124075D01*
X455201Y124866D01*
X451772D01*
X448342D01*
X448670Y124075D01*
X449239Y123333D01*
X449736Y122952D01*
X449567Y122452D01*
X447710D01*
X445229Y124933D01*
X445231Y124939D01*
X445354Y125866D01*
X445231Y126793D01*
X444874Y127657D01*
X444304Y128399D01*
X443563Y128968D01*
X442699Y129326D01*
X441772Y129448D01*
D02*
G37*
G36*
X593356Y112297D02*
X591797D01*
Y111583D01*
X594710D01*
X594568Y111795D01*
X594012Y112167D01*
X593356Y112297D01*
D02*
G37*
G36*
X589797D02*
X588238D01*
X587582Y112167D01*
X587026Y111795D01*
X586885Y111583D01*
X589797D01*
Y112297D01*
D02*
G37*
G36*
X594710Y109583D02*
X591797D01*
Y108869D01*
X593356D01*
X594012Y109000D01*
X594568Y109371D01*
X594710Y109583D01*
D02*
G37*
G36*
X589797D02*
X586885D01*
X587026Y109371D01*
X587582Y109000D01*
X588238Y108869D01*
X589797D01*
Y109583D01*
D02*
G37*
G36*
X442772Y109296D02*
Y106866D01*
X445201D01*
X444874Y107657D01*
X444304Y108399D01*
X443563Y108968D01*
X442772Y109296D01*
D02*
G37*
G36*
X440772Y109296D02*
X439981Y108968D01*
X439239Y108399D01*
X438670Y107657D01*
X438342Y106866D01*
X440772D01*
Y109296D01*
D02*
G37*
G36*
X611860Y107297D02*
X610301D01*
Y106583D01*
X613214D01*
X613072Y106795D01*
X612516Y107167D01*
X611860Y107297D01*
D02*
G37*
G36*
X608301D02*
X606742D01*
X606086Y107167D01*
X605530Y106795D01*
X605389Y106583D01*
X608301D01*
Y107297D01*
D02*
G37*
G36*
X628258Y119438D02*
X623124D01*
Y112729D01*
X623907D01*
Y111438D01*
X623124D01*
Y104729D01*
X628258D01*
Y111438D01*
X627475D01*
Y112729D01*
X628258D01*
Y119438D01*
D02*
G37*
G36*
X613214Y104583D02*
X610301D01*
Y103869D01*
X611860D01*
X612516Y104000D01*
X613072Y104371D01*
X613214Y104583D01*
D02*
G37*
G36*
X608301D02*
X605388D01*
X605530Y104371D01*
X606086Y104000D01*
X606742Y103869D01*
X608301D01*
Y104583D01*
D02*
G37*
G36*
X558071Y127397D02*
X556643Y127257D01*
X555270Y126840D01*
X554005Y126164D01*
X552896Y125254D01*
X551986Y124145D01*
X551309Y122880D01*
X550893Y121507D01*
X550752Y120079D01*
X550893Y118651D01*
X551309Y117278D01*
X551986Y116013D01*
X552896Y114904D01*
X554005Y113994D01*
X554806Y113565D01*
X554813Y113277D01*
X554744Y113032D01*
X553620Y112566D01*
X552593Y111778D01*
X551804Y110750D01*
X551308Y109552D01*
X551139Y108268D01*
X551308Y106983D01*
X551804Y105786D01*
X552593Y104758D01*
X553620Y103969D01*
X554818Y103473D01*
X556102Y103304D01*
X557387Y103473D01*
X558584Y103969D01*
X559612Y104758D01*
X560401Y105786D01*
X560897Y106983D01*
X561066Y108268D01*
X560897Y109552D01*
X560401Y110750D01*
X559612Y111778D01*
X558883Y112338D01*
X559030Y112855D01*
X559499Y112901D01*
X560872Y113317D01*
X562137Y113994D01*
X563246Y114904D01*
X564156Y116013D01*
X564832Y117278D01*
X565249Y118651D01*
X565390Y120079D01*
X565249Y121507D01*
X564832Y122880D01*
X564156Y124145D01*
X563246Y125254D01*
X562137Y126164D01*
X560872Y126840D01*
X559499Y127257D01*
X558071Y127397D01*
D02*
G37*
G36*
X445201Y104866D02*
X442772D01*
Y102437D01*
X443563Y102764D01*
X444304Y103333D01*
X444874Y104075D01*
X445201Y104866D01*
D02*
G37*
G36*
X440772D02*
X438342D01*
X438670Y104075D01*
X439239Y103333D01*
X439981Y102764D01*
X440772Y102437D01*
Y104866D01*
D02*
G37*
G36*
X628258Y103438D02*
X626691D01*
Y101083D01*
X628258D01*
Y103438D01*
D02*
G37*
G36*
X624691D02*
X623124D01*
Y101083D01*
X624691D01*
Y103438D01*
D02*
G37*
G36*
X628258Y99083D02*
X626691D01*
Y96729D01*
X628258D01*
Y99083D01*
D02*
G37*
G36*
X624691D02*
X623124D01*
Y96729D01*
X624691D01*
Y99083D01*
D02*
G37*
G36*
X604000Y223784D02*
X603317Y223649D01*
X602738Y223262D01*
X602352Y222683D01*
X602216Y222000D01*
Y217850D01*
X600646D01*
Y212717D01*
X607354D01*
Y213678D01*
X621933D01*
Y210563D01*
X615957D01*
Y209280D01*
X613601D01*
X613473Y209473D01*
X612917Y209844D01*
X612261Y209975D01*
X611605Y209844D01*
X611049Y209473D01*
X610677Y208917D01*
X610547Y208261D01*
X610677Y207605D01*
X611049Y207049D01*
X611605Y206677D01*
X612261Y206547D01*
X612917Y206677D01*
X613473Y207049D01*
X613601Y207241D01*
X615957D01*
Y206807D01*
X616457D01*
X616648Y206345D01*
X611323Y201020D01*
X606075D01*
Y202799D01*
X605784D01*
Y205433D01*
X607354D01*
Y210567D01*
X600646D01*
Y205433D01*
X602216D01*
Y202799D01*
X601925D01*
Y198650D01*
X606075D01*
Y198980D01*
X611745D01*
X612135Y199058D01*
X612466Y199279D01*
X619646Y206459D01*
X619709Y206553D01*
X620291D01*
X620354Y206459D01*
X627534Y199279D01*
X627865Y199058D01*
X628255Y198980D01*
X633925D01*
Y198650D01*
X638075D01*
Y202799D01*
X637784D01*
Y205791D01*
X639354D01*
Y210925D01*
X632646D01*
Y205791D01*
X634216D01*
Y202799D01*
X633925D01*
Y201020D01*
X628677D01*
X623352Y206345D01*
X623543Y206807D01*
X624043D01*
Y210563D01*
X623972D01*
Y213678D01*
X632646D01*
Y213075D01*
X636645D01*
X636817Y213040D01*
X638436D01*
X644216Y207261D01*
Y146739D01*
X617963Y120486D01*
X617576Y119907D01*
X617483Y119438D01*
X615841D01*
Y112867D01*
X615841Y112729D01*
X615506Y112367D01*
X609301D01*
X608948Y112297D01*
X606742D01*
X606086Y112167D01*
X605530Y111795D01*
X605159Y111239D01*
X605028Y110583D01*
X605159Y109927D01*
X605530Y109371D01*
X606086Y109000D01*
X606742Y108869D01*
X608948D01*
X609301Y108799D01*
X615841D01*
Y104729D01*
X616623D01*
Y103438D01*
X615841D01*
Y96729D01*
X620974D01*
Y103438D01*
X620192D01*
Y104729D01*
X620974D01*
Y111438D01*
X618364D01*
X617957Y111845D01*
X617378Y112232D01*
X617441Y112729D01*
X620974D01*
Y116728D01*
X621009Y116900D01*
Y118485D01*
X647262Y144738D01*
X647262Y144738D01*
X647648Y145317D01*
X647784Y146000D01*
Y208000D01*
X647648Y208683D01*
X647262Y209262D01*
X647262Y209262D01*
X640437Y216087D01*
X639858Y216473D01*
X639354Y216574D01*
Y218209D01*
X632646D01*
Y217247D01*
X624465D01*
X624043Y217437D01*
X624043Y217747D01*
Y218315D01*
X622953D01*
Y219315D01*
X621984D01*
Y219315D01*
X620107D01*
Y221193D01*
X617925D01*
Y219315D01*
X617047D01*
Y218315D01*
X615957D01*
Y217437D01*
X615535Y217247D01*
X607354D01*
Y217850D01*
X605784D01*
Y222000D01*
X605649Y222683D01*
X605262Y223262D01*
X604683Y223649D01*
X604000Y223784D01*
D02*
G37*
G36*
X604199Y95438D02*
Y93083D01*
X606258D01*
Y95438D01*
X604199D01*
D02*
G37*
G36*
X606258Y91083D02*
X604199D01*
Y88729D01*
X606258D01*
Y91083D01*
D02*
G37*
G36*
Y87437D02*
X604199D01*
Y85083D01*
X606258D01*
Y87437D01*
D02*
G37*
G36*
X578256Y84949D02*
X574819D01*
Y81709D01*
X578256D01*
Y84949D01*
D02*
G37*
G36*
X572819D02*
X569382D01*
Y81709D01*
X572819D01*
Y84949D01*
D02*
G37*
G36*
X532480Y89609D02*
X531196Y89440D01*
X529998Y88944D01*
X528970Y88156D01*
X528182Y87128D01*
X527686Y85930D01*
X527517Y84646D01*
X527686Y83361D01*
X528182Y82164D01*
X528970Y81136D01*
X529998Y80347D01*
X531196Y79851D01*
X532480Y79682D01*
X533765Y79851D01*
X534962Y80347D01*
X535990Y81136D01*
X536779Y82164D01*
X537275Y83361D01*
X537444Y84646D01*
X537275Y85930D01*
X536779Y87128D01*
X535990Y88156D01*
X534962Y88944D01*
X533765Y89440D01*
X532480Y89609D01*
D02*
G37*
G36*
X578256Y79709D02*
X574819D01*
Y76468D01*
X578256D01*
Y79709D01*
D02*
G37*
G36*
X572819D02*
X569382D01*
Y76468D01*
X572819D01*
Y79709D01*
D02*
G37*
G36*
X544291Y80153D02*
X542864Y80013D01*
X541491Y79596D01*
X540225Y78920D01*
X539116Y78010D01*
X538206Y76901D01*
X537530Y75635D01*
X537113Y74262D01*
X536973Y72835D01*
X537113Y71407D01*
X537530Y70034D01*
X538206Y68769D01*
X539116Y67659D01*
X540225Y66749D01*
X541491Y66073D01*
X542864Y65657D01*
X544291Y65516D01*
X545719Y65657D01*
X547092Y66073D01*
X548357Y66749D01*
X549466Y67659D01*
X550377Y68769D01*
X551053Y70034D01*
X551469Y71407D01*
X551610Y72835D01*
X551469Y74262D01*
X551053Y75635D01*
X550377Y76901D01*
X549466Y78010D01*
X548357Y78920D01*
X547092Y79596D01*
X545719Y80013D01*
X544291Y80153D01*
D02*
G37*
G36*
X640748Y75105D02*
X638961Y74929D01*
X637243Y74408D01*
X635659Y73562D01*
X634271Y72422D01*
X633131Y71034D01*
X632285Y69450D01*
X631764Y67732D01*
X631588Y65945D01*
X631764Y64158D01*
X632285Y62439D01*
X633131Y60856D01*
X634271Y59467D01*
X635659Y58328D01*
X637243Y57482D01*
X638961Y56960D01*
X640748Y56784D01*
X642535Y56960D01*
X644254Y57482D01*
X645837Y58328D01*
X647226Y59467D01*
X648365Y60856D01*
X649211Y62439D01*
X649732Y64158D01*
X649908Y65945D01*
X649732Y67732D01*
X649211Y69450D01*
X648365Y71034D01*
X647226Y72422D01*
X645837Y73562D01*
X644254Y74408D01*
X642535Y74929D01*
X640748Y75105D01*
D02*
G37*
G36*
X447835D02*
X446047Y74929D01*
X444329Y74408D01*
X442745Y73562D01*
X441357Y72422D01*
X440218Y71034D01*
X439371Y69450D01*
X438850Y67732D01*
X438674Y65945D01*
X438850Y64158D01*
X439371Y62439D01*
X440218Y60856D01*
X441357Y59467D01*
X442745Y58328D01*
X444329Y57482D01*
X446047Y56960D01*
X447835Y56784D01*
X449622Y56960D01*
X451340Y57482D01*
X452924Y58328D01*
X454312Y59467D01*
X455451Y60856D01*
X456298Y62439D01*
X456819Y64158D01*
X456995Y65945D01*
X456819Y67732D01*
X456298Y69450D01*
X455451Y71034D01*
X454312Y72422D01*
X452924Y73562D01*
X451340Y74408D01*
X449622Y74929D01*
X447835Y75105D01*
D02*
G37*
%LPD*%
D14*
X635276Y200000D02*
X636000Y200724D01*
X628255Y200000D02*
X635276D01*
X620984Y208685D02*
X621075Y208594D01*
Y207180D02*
Y208594D01*
Y207180D02*
X628255Y200000D01*
X604000Y200724D02*
X604724Y200000D01*
X618925Y208594D02*
X619016Y208685D01*
X618925Y207180D02*
Y208594D01*
X611745Y200000D02*
X618925Y207180D01*
X604724Y200000D02*
X611745D01*
X617047Y208351D02*
Y208685D01*
X612261Y208261D02*
X616957D01*
X617047Y208351D01*
X622953Y208685D02*
Y214415D01*
X624000Y215463D01*
D17*
X610465Y258000D02*
D03*
X593535D02*
D03*
D18*
X626358Y280000D02*
D03*
X633642D02*
D03*
Y272000D02*
D03*
X626358D02*
D03*
X618407Y116083D02*
D03*
X625691D02*
D03*
Y108083D02*
D03*
X618407D02*
D03*
Y100083D02*
D03*
X625691D02*
D03*
D19*
X611646Y238000D02*
D03*
X592354D02*
D03*
D20*
X622953Y208685D02*
D03*
X620984D02*
D03*
X619016D02*
D03*
X617047D02*
D03*
Y219315D02*
D03*
X619016D02*
D03*
X620984D02*
D03*
X622953D02*
D03*
D21*
X604000Y215283D02*
D03*
Y208000D02*
D03*
X636000Y215642D02*
D03*
Y208358D02*
D03*
X632000Y183642D02*
D03*
Y176358D02*
D03*
X640000Y183642D02*
D03*
Y176358D02*
D03*
X600000Y183642D02*
D03*
Y176358D02*
D03*
X608000Y183642D02*
D03*
Y176358D02*
D03*
X474000Y205642D02*
D03*
Y198358D02*
D03*
X466000D02*
D03*
Y205642D02*
D03*
D22*
X636000Y200724D02*
D03*
X639740Y191276D02*
D03*
X632260D02*
D03*
X604000Y200724D02*
D03*
X607740Y191276D02*
D03*
X600260D02*
D03*
X486000Y206724D02*
D03*
X489740Y197276D02*
D03*
X482260D02*
D03*
D23*
X596900Y84083D02*
D03*
X603199D02*
D03*
X596900Y92083D02*
D03*
X603199D02*
D03*
D24*
X514764Y80709D02*
D03*
Y96457D02*
D03*
Y112205D02*
D03*
X573819Y80709D02*
D03*
Y96457D02*
D03*
Y112205D02*
D03*
D25*
X486465Y218000D02*
D03*
X469535D02*
D03*
D26*
X609301Y100583D02*
D03*
Y105583D02*
D03*
Y110583D02*
D03*
Y115583D02*
D03*
X590797Y100583D02*
D03*
Y105583D02*
D03*
Y110583D02*
D03*
Y115583D02*
D03*
D42*
X595630Y294291D02*
D03*
X585630D02*
D03*
X575630D02*
D03*
X565630D02*
D03*
X555630D02*
D03*
X545630D02*
D03*
X535630D02*
D03*
D43*
X525630D02*
D03*
D48*
X631861Y251390D02*
X633390D01*
X638000Y256000D02*
Y266854D01*
X633390Y251390D02*
X638000Y256000D01*
X619844Y254725D02*
X626536D01*
X613152D02*
X619844D01*
X626525Y238004D02*
X626536Y237993D01*
X625586Y238004D02*
X626525D01*
X619844Y243746D02*
X625586Y238004D01*
X619844Y243746D02*
Y254725D01*
X626536Y237993D02*
X631850D01*
X610465Y257412D02*
X613152Y254725D01*
X610465Y257412D02*
Y258000D01*
X626536Y254725D02*
X631850D01*
X633642Y271213D02*
X638000Y266854D01*
X631850Y251379D02*
X631861Y251390D01*
X633642Y271213D02*
Y272000D01*
X581333Y190667D02*
X595209Y176791D01*
X446589Y190667D02*
X581333D01*
X451772Y95866D02*
X485638Y62000D01*
X570000D02*
X590797Y82797D01*
X485638Y62000D02*
X570000D01*
X446971Y83877D02*
X472848Y58000D01*
X585004D02*
X609301Y82297D01*
X472848Y58000D02*
X585004D01*
X446971Y83877D02*
Y101049D01*
X451772Y105850D01*
Y105866D01*
X590797Y82797D02*
Y100583D01*
X609301Y82297D02*
Y100583D01*
X596000Y83183D02*
X596900Y84083D01*
X596000Y76000D02*
Y83183D01*
X451772Y215866D02*
X461179Y206459D01*
X465183D01*
X466000Y205642D01*
X569921Y300000D02*
X575630Y294291D01*
X480000Y300000D02*
X569921D01*
X462000Y282000D02*
X480000Y300000D01*
X494842Y282842D02*
X534180D01*
X545630Y294291D01*
X482000Y270000D02*
X494842Y282842D01*
X441772Y275866D02*
X447905Y282000D01*
X462000D01*
X599567Y176791D02*
X600000Y176358D01*
X595209Y176791D02*
X599567D01*
X441772Y185866D02*
X441788D01*
X446589Y190667D01*
X460984Y156653D02*
X471457D01*
X451772Y165866D02*
X460984Y156653D01*
X564000Y135866D02*
X597677D01*
X451772D02*
X564000D01*
X573819Y112205D02*
Y126047D01*
X564000Y135866D02*
X573819Y126047D01*
X597677Y135866D02*
X632000Y170189D01*
X475333Y110667D02*
X504541Y81459D01*
X446971Y110667D02*
X475333D01*
X504541Y81459D02*
X514014D01*
X482134Y115866D02*
X510000Y88000D01*
X451772Y115866D02*
X482134D01*
X510000Y88000D02*
X522000D01*
X530457Y96457D02*
X573819D01*
X522000Y88000D02*
X530457Y96457D01*
X514014Y81459D02*
X514764Y80709D01*
X573819Y112205D02*
X574016D01*
X514567D02*
X514764D01*
X496104Y130667D02*
X514567Y112205D01*
X446971Y130667D02*
X496104D01*
X441772Y135866D02*
X446971Y130667D01*
X514567Y96457D02*
X514764D01*
X490356Y120667D02*
X514567Y96457D01*
X446971Y120667D02*
X490356D01*
X441772Y125866D02*
X446971Y120667D01*
X441772Y115866D02*
X446971Y110667D01*
X632000Y170189D02*
Y176358D01*
X622953Y215463D02*
X624000D01*
X604179D02*
X622953D01*
X618407Y116083D02*
X619225Y116900D01*
X646000Y146000D02*
Y208000D01*
X619225Y119225D02*
X646000Y146000D01*
X619225Y116900D02*
Y119225D01*
X625691Y108083D02*
Y116083D01*
X618407Y108083D02*
Y108871D01*
X616695Y110583D02*
X618407Y108871D01*
X609301Y110583D02*
X616695D01*
X618407Y100083D02*
Y108083D01*
X596900Y84083D02*
Y92083D01*
X590797Y105583D02*
X593219D01*
X596900Y101902D01*
Y92083D02*
Y101902D01*
X636000Y215642D02*
X636817Y214825D01*
X639175D01*
X646000Y208000D01*
X604000Y200724D02*
Y208000D01*
X636000Y200724D02*
Y208358D01*
X624000Y215463D02*
X635821D01*
X604000Y215283D02*
X604179Y215463D01*
X635821D02*
X636000Y215642D01*
X604000Y215283D02*
Y222000D01*
X632000Y183642D02*
X640000D01*
X632130Y191146D02*
X632260Y191276D01*
X632130Y183772D02*
Y191146D01*
X632000Y183642D02*
X632130Y183772D01*
X600000Y183642D02*
X608000D01*
X600130Y191146D02*
X600260Y191276D01*
X600130Y183772D02*
Y191146D01*
X600000Y183642D02*
X600130Y183772D01*
X593535Y239181D02*
Y258000D01*
X592354Y238000D02*
X593535Y239181D01*
Y258000D02*
Y268465D01*
X592000Y270000D02*
X593535Y268465D01*
X620000Y280000D02*
X626358D01*
X466000Y198358D02*
X474000D01*
X481177D02*
X482260Y197276D01*
X474000Y198358D02*
X481177D01*
X486465Y207189D02*
Y218000D01*
X486000Y206724D02*
X486465Y207189D01*
X482000Y240000D02*
X482498Y239502D01*
Y220195D02*
Y239502D01*
Y220195D02*
X484693Y218000D01*
X486465D01*
X472000Y220195D02*
Y240000D01*
X469805Y218000D02*
X472000Y220195D01*
X469535Y218000D02*
X469805D01*
D49*
X626536Y234646D02*
D03*
Y237993D02*
D03*
Y241339D02*
D03*
Y244686D02*
D03*
Y248032D02*
D03*
Y251379D02*
D03*
Y254725D02*
D03*
Y258072D02*
D03*
X631850D02*
D03*
Y254725D02*
D03*
Y251379D02*
D03*
Y248032D02*
D03*
Y244686D02*
D03*
Y241339D02*
D03*
Y237993D02*
D03*
Y234646D02*
D03*
D50*
X630394Y229331D02*
D03*
Y263387D02*
D03*
D51*
X643701D02*
D03*
Y229331D02*
D03*
D52*
X482000Y270000D02*
D03*
X472000Y240000D02*
D03*
D53*
Y270000D02*
D03*
X482000Y240000D02*
D03*
D54*
X471457Y166654D02*
D03*
Y156653D02*
D03*
Y176654D02*
D03*
D55*
Y146653D02*
D03*
D56*
X558071Y120079D02*
D03*
X530512D02*
D03*
X544291Y72835D02*
D03*
D57*
X556102Y108268D02*
D03*
X532480Y84646D02*
D03*
D58*
X441772Y275866D02*
D03*
Y265866D02*
D03*
Y255866D02*
D03*
Y245866D02*
D03*
Y235866D02*
D03*
Y225866D02*
D03*
Y215866D02*
D03*
Y205866D02*
D03*
Y195866D02*
D03*
Y185866D02*
D03*
Y175866D02*
D03*
Y165866D02*
D03*
Y155866D02*
D03*
Y145866D02*
D03*
Y135866D02*
D03*
Y125866D02*
D03*
Y115866D02*
D03*
Y105866D02*
D03*
Y95866D02*
D03*
Y85866D02*
D03*
X451772Y275866D02*
D03*
Y265866D02*
D03*
Y255866D02*
D03*
Y245866D02*
D03*
Y235866D02*
D03*
Y225866D02*
D03*
Y215866D02*
D03*
Y205866D02*
D03*
Y195866D02*
D03*
Y185866D02*
D03*
Y175866D02*
D03*
Y165866D02*
D03*
Y155866D02*
D03*
Y145866D02*
D03*
Y135866D02*
D03*
Y125866D02*
D03*
Y115866D02*
D03*
Y105866D02*
D03*
Y95866D02*
D03*
Y85866D02*
D03*
D59*
X596000Y76000D02*
D03*
X612261Y208261D02*
D03*
X604000Y222000D02*
D03*
X592000Y270000D02*
D03*
X620000Y280000D02*
D03*
M02*
