G04*
G04 #@! TF.GenerationSoftware,Altium Limited,Altium Designer,20.2.6 (244)*
G04*
G04 Layer_Color=8421504*
%FSLAX25Y25*%
%MOIN*%
G70*
G04*
G04 #@! TF.SameCoordinates,54722894-AE61-4C59-B5F0-4C27AF3D34EB*
G04*
G04*
G04 #@! TF.FilePolarity,Positive*
G04*
G01*
G75*
%ADD17R,0.07874X0.13780*%
%ADD18R,0.04134X0.05709*%
%ADD19R,0.08504X0.08898*%
%ADD20R,0.01181X0.02756*%
%ADD21R,0.05709X0.04134*%
%ADD22R,0.03150X0.03150*%
%ADD23R,0.05118X0.05709*%
%ADD24R,0.07874X0.07480*%
%ADD25R,0.10433X0.06890*%
%ADD26O,0.07480X0.02362*%
D17*
X610465Y258000D02*
D03*
X593535D02*
D03*
D18*
X626358Y280000D02*
D03*
X633642D02*
D03*
Y272000D02*
D03*
X626358D02*
D03*
X618407Y116083D02*
D03*
X625691D02*
D03*
Y108083D02*
D03*
X618407D02*
D03*
Y100083D02*
D03*
X625691D02*
D03*
D19*
X611646Y238000D02*
D03*
X592354D02*
D03*
D20*
X622953Y208685D02*
D03*
X620984D02*
D03*
X619016D02*
D03*
X617047D02*
D03*
Y219315D02*
D03*
X619016D02*
D03*
X620984D02*
D03*
X622953D02*
D03*
D21*
X604000Y215283D02*
D03*
Y208000D02*
D03*
X636000Y215642D02*
D03*
Y208358D02*
D03*
X632000Y183642D02*
D03*
Y176358D02*
D03*
X640000Y183642D02*
D03*
Y176358D02*
D03*
X600000Y183642D02*
D03*
Y176358D02*
D03*
X608000Y183642D02*
D03*
Y176358D02*
D03*
X474000Y205642D02*
D03*
Y198358D02*
D03*
X466000D02*
D03*
Y205642D02*
D03*
D22*
X636000Y200724D02*
D03*
X639740Y191276D02*
D03*
X632260D02*
D03*
X604000Y200724D02*
D03*
X607740Y191276D02*
D03*
X600260D02*
D03*
X486000Y206724D02*
D03*
X489740Y197276D02*
D03*
X482260D02*
D03*
D23*
X596900Y84083D02*
D03*
X603199D02*
D03*
X596900Y92083D02*
D03*
X603199D02*
D03*
D24*
X514764Y80709D02*
D03*
Y96457D02*
D03*
Y112205D02*
D03*
X573819Y80709D02*
D03*
Y96457D02*
D03*
Y112205D02*
D03*
D25*
X486465Y218000D02*
D03*
X469535D02*
D03*
D26*
X609301Y100583D02*
D03*
Y105583D02*
D03*
Y110583D02*
D03*
Y115583D02*
D03*
X590797Y100583D02*
D03*
Y105583D02*
D03*
Y110583D02*
D03*
Y115583D02*
D03*
M02*
