G04*
G04 #@! TF.GenerationSoftware,Altium Limited,Altium Designer,20.2.6 (244)*
G04*
G04 Layer_Color=8388736*
%FSLAX25Y25*%
%MOIN*%
G70*
G04*
G04 #@! TF.SameCoordinates,54722894-AE61-4C59-B5F0-4C27AF3D34EB*
G04*
G04*
G04 #@! TF.FilePolarity,Negative*
G04*
G01*
G75*
%ADD19R,0.08504X0.08898*%
%ADD20R,0.01181X0.02756*%
%ADD22R,0.03150X0.03150*%
%ADD27R,0.08465X0.14370*%
%ADD28R,0.04724X0.06299*%
%ADD29R,0.06299X0.04724*%
%ADD30R,0.05709X0.06299*%
%ADD31R,0.08465X0.08071*%
%ADD32R,0.11024X0.07480*%
%ADD33O,0.08071X0.02953*%
%ADD34C,0.03150*%
%ADD35O,0.10039X0.04134*%
%ADD36O,0.07284X0.04134*%
%ADD37R,0.07284X0.07284*%
%ADD38C,0.07284*%
%ADD39C,0.00591*%
%ADD40C,0.06102*%
%ADD41R,0.06102X0.06102*%
%ADD42C,0.06181*%
%ADD43R,0.06181X0.06181*%
%ADD44C,0.13189*%
%ADD45C,0.08465*%
%ADD46C,0.06693*%
%ADD47C,0.02953*%
D19*
X611646Y238000D02*
D03*
X592354D02*
D03*
D20*
X622953Y208685D02*
D03*
X620984D02*
D03*
X619016D02*
D03*
X617047D02*
D03*
Y219315D02*
D03*
X619016D02*
D03*
X620984D02*
D03*
X622953D02*
D03*
D22*
X636000Y200724D02*
D03*
X639740Y191276D02*
D03*
X632260D02*
D03*
X604000Y200724D02*
D03*
X607740Y191276D02*
D03*
X600260D02*
D03*
X486000Y206724D02*
D03*
X489740Y197276D02*
D03*
X482260D02*
D03*
D27*
X610465Y258000D02*
D03*
X593535D02*
D03*
D28*
X626358Y280000D02*
D03*
X633642D02*
D03*
Y272000D02*
D03*
X626358D02*
D03*
X618407Y116083D02*
D03*
X625691D02*
D03*
Y108083D02*
D03*
X618407D02*
D03*
Y100083D02*
D03*
X625691D02*
D03*
D29*
X604000Y215283D02*
D03*
Y208000D02*
D03*
X636000Y215642D02*
D03*
Y208358D02*
D03*
X632000Y183642D02*
D03*
Y176358D02*
D03*
X640000Y183642D02*
D03*
Y176358D02*
D03*
X600000Y183642D02*
D03*
Y176358D02*
D03*
X608000Y183642D02*
D03*
Y176358D02*
D03*
X474000Y205642D02*
D03*
Y198358D02*
D03*
X466000D02*
D03*
Y205642D02*
D03*
D30*
X596900Y84083D02*
D03*
X603199D02*
D03*
X596900Y92083D02*
D03*
X603199D02*
D03*
D31*
X514764Y80709D02*
D03*
Y96457D02*
D03*
Y112205D02*
D03*
X573819Y80709D02*
D03*
Y96457D02*
D03*
Y112205D02*
D03*
D32*
X486465Y218000D02*
D03*
X469535D02*
D03*
D33*
X609301Y100583D02*
D03*
Y105583D02*
D03*
Y110583D02*
D03*
Y115583D02*
D03*
X590797Y100583D02*
D03*
Y105583D02*
D03*
Y110583D02*
D03*
Y115583D02*
D03*
D34*
X626536Y234646D02*
D03*
Y237993D02*
D03*
Y241339D02*
D03*
Y244686D02*
D03*
Y248032D02*
D03*
Y251379D02*
D03*
Y254725D02*
D03*
Y258072D02*
D03*
X631850D02*
D03*
Y254725D02*
D03*
Y251379D02*
D03*
Y248032D02*
D03*
Y244686D02*
D03*
Y241339D02*
D03*
Y237993D02*
D03*
Y234646D02*
D03*
D35*
X630394Y229331D02*
D03*
Y263387D02*
D03*
D36*
X643701D02*
D03*
Y229331D02*
D03*
D37*
X482000Y270000D02*
D03*
X472000Y240000D02*
D03*
D38*
Y270000D02*
D03*
X482000Y240000D02*
D03*
D39*
X542323Y236221D02*
D03*
X510827Y267717D02*
D03*
X573819D02*
D03*
X510827Y204724D02*
D03*
X573819D02*
D03*
X640748Y294291D02*
D03*
Y65945D02*
D03*
X447835D02*
D03*
Y294291D02*
D03*
D40*
X471457Y166654D02*
D03*
Y156653D02*
D03*
Y176654D02*
D03*
D41*
Y146653D02*
D03*
D42*
X595630Y294291D02*
D03*
X585630D02*
D03*
X575630D02*
D03*
X565630D02*
D03*
X555630D02*
D03*
X545630D02*
D03*
X535630D02*
D03*
D43*
X525630D02*
D03*
D44*
X558071Y120079D02*
D03*
X530512D02*
D03*
X544291Y72835D02*
D03*
D45*
X556102Y108268D02*
D03*
X532480Y84646D02*
D03*
D46*
X441772Y275866D02*
D03*
Y265866D02*
D03*
Y255866D02*
D03*
Y245866D02*
D03*
Y235866D02*
D03*
Y225866D02*
D03*
Y215866D02*
D03*
Y205866D02*
D03*
Y195866D02*
D03*
Y185866D02*
D03*
Y175866D02*
D03*
Y165866D02*
D03*
Y155866D02*
D03*
Y145866D02*
D03*
Y135866D02*
D03*
Y125866D02*
D03*
Y115866D02*
D03*
Y105866D02*
D03*
Y95866D02*
D03*
Y85866D02*
D03*
X451772Y275866D02*
D03*
Y265866D02*
D03*
Y255866D02*
D03*
Y245866D02*
D03*
Y235866D02*
D03*
Y225866D02*
D03*
Y215866D02*
D03*
Y205866D02*
D03*
Y195866D02*
D03*
Y185866D02*
D03*
Y175866D02*
D03*
Y165866D02*
D03*
Y155866D02*
D03*
Y145866D02*
D03*
Y135866D02*
D03*
Y125866D02*
D03*
Y115866D02*
D03*
Y105866D02*
D03*
Y95866D02*
D03*
Y85866D02*
D03*
D47*
X596000Y76000D02*
D03*
X612261Y208261D02*
D03*
X604000Y222000D02*
D03*
X592000Y270000D02*
D03*
X620000Y280000D02*
D03*
M02*
