G04*
G04 #@! TF.GenerationSoftware,Altium Limited,Altium Designer,20.2.6 (244)*
G04*
G04 Layer_Physical_Order=2*
G04 Layer_Color=16711680*
%FSLAX25Y25*%
%MOIN*%
G70*
G04*
G04 #@! TF.SameCoordinates,54722894-AE61-4C59-B5F0-4C27AF3D34EB*
G04*
G04*
G04 #@! TF.FilePolarity,Positive*
G04*
G01*
G75*
%ADD42C,0.06181*%
%ADD43R,0.06181X0.06181*%
%ADD48C,0.02500*%
%ADD49C,0.02559*%
%ADD50O,0.09449X0.03543*%
%ADD51O,0.06693X0.03543*%
%ADD52R,0.06693X0.06693*%
%ADD53C,0.06693*%
%ADD54C,0.05512*%
%ADD55R,0.05512X0.05512*%
%ADD56C,0.12598*%
%ADD57C,0.07874*%
%ADD58C,0.06102*%
%ADD59C,0.02362*%
G36*
X642368Y305034D02*
X644027Y304635D01*
X645604Y303982D01*
X647059Y303091D01*
X648357Y301982D01*
X649465Y300684D01*
X650357Y299229D01*
X651010Y297652D01*
X651409Y295993D01*
X651542Y294303D01*
X651540Y294291D01*
Y65945D01*
X651542Y65934D01*
X651409Y64243D01*
X651010Y62584D01*
X650357Y61007D01*
X649465Y59552D01*
X648357Y58254D01*
X647059Y57146D01*
X645604Y56254D01*
X644027Y55601D01*
X642368Y55203D01*
X641154Y55107D01*
X640666Y55072D01*
X640666Y55072D01*
X640172Y55072D01*
X447835D01*
X447823Y55069D01*
X446133Y55203D01*
X444474Y55601D01*
X442897Y56254D01*
X441442Y57146D01*
X440144Y58254D01*
X439036Y59552D01*
X438144Y61007D01*
X437491Y62584D01*
X437092Y64243D01*
X436959Y65934D01*
X436962Y65945D01*
Y294210D01*
X436959Y294221D01*
X437092Y295911D01*
X437491Y297571D01*
X438144Y299147D01*
X439036Y300603D01*
X440144Y301900D01*
X441442Y303009D01*
X442897Y303901D01*
X444474Y304554D01*
X446133Y304952D01*
X447823Y305085D01*
X447835Y305083D01*
X640748D01*
X641031Y305139D01*
X642368Y305034D01*
D02*
G37*
%LPC*%
G36*
X596630Y297763D02*
Y295291D01*
X599102D01*
X598766Y296102D01*
X598191Y296852D01*
X597441Y297428D01*
X596630Y297763D01*
D02*
G37*
G36*
X594630D02*
X593819Y297428D01*
X593069Y296852D01*
X592494Y296102D01*
X592158Y295291D01*
X594630D01*
Y297763D01*
D02*
G37*
G36*
X599102Y293291D02*
X596630D01*
Y290819D01*
X597441Y291155D01*
X598191Y291730D01*
X598766Y292481D01*
X599102Y293291D01*
D02*
G37*
G36*
X594630D02*
X592158D01*
X592494Y292481D01*
X593069Y291730D01*
X593819Y291155D01*
X594630Y290819D01*
Y293291D01*
D02*
G37*
G36*
X585630Y297913D02*
X584693Y297790D01*
X583819Y297428D01*
X583069Y296852D01*
X582494Y296102D01*
X582132Y295229D01*
X582008Y294291D01*
X582132Y293354D01*
X582494Y292481D01*
X583069Y291730D01*
X583819Y291155D01*
X584693Y290793D01*
X585630Y290670D01*
X586567Y290793D01*
X587441Y291155D01*
X588191Y291730D01*
X588766Y292481D01*
X589128Y293354D01*
X589252Y294291D01*
X589128Y295229D01*
X588766Y296102D01*
X588191Y296852D01*
X587441Y297428D01*
X586567Y297790D01*
X585630Y297913D01*
D02*
G37*
G36*
X575630D02*
X574693Y297790D01*
X573819Y297428D01*
X573069Y296852D01*
X572494Y296102D01*
X572132Y295229D01*
X572008Y294291D01*
X572132Y293354D01*
X572494Y292481D01*
X573069Y291730D01*
X573819Y291155D01*
X574693Y290793D01*
X575630Y290670D01*
X576567Y290793D01*
X577441Y291155D01*
X578191Y291730D01*
X578766Y292481D01*
X579128Y293354D01*
X579251Y294291D01*
X579128Y295229D01*
X578766Y296102D01*
X578191Y296852D01*
X577441Y297428D01*
X576567Y297790D01*
X575630Y297913D01*
D02*
G37*
G36*
X565630D02*
X564693Y297790D01*
X563819Y297428D01*
X563069Y296852D01*
X562494Y296102D01*
X562132Y295229D01*
X562008Y294291D01*
X562132Y293354D01*
X562494Y292481D01*
X563069Y291730D01*
X563819Y291155D01*
X564693Y290793D01*
X565630Y290670D01*
X566567Y290793D01*
X567441Y291155D01*
X568191Y291730D01*
X568766Y292481D01*
X569128Y293354D01*
X569251Y294291D01*
X569128Y295229D01*
X568766Y296102D01*
X568191Y296852D01*
X567441Y297428D01*
X566567Y297790D01*
X565630Y297913D01*
D02*
G37*
G36*
X535630D02*
X534693Y297790D01*
X533819Y297428D01*
X533069Y296852D01*
X532494Y296102D01*
X532132Y295229D01*
X532008Y294291D01*
X532132Y293354D01*
X532494Y292481D01*
X533069Y291730D01*
X533819Y291155D01*
X534693Y290793D01*
X535630Y290670D01*
X536567Y290793D01*
X537441Y291155D01*
X538191Y291730D01*
X538766Y292481D01*
X539128Y293354D01*
X539252Y294291D01*
X539128Y295229D01*
X538766Y296102D01*
X538191Y296852D01*
X537441Y297428D01*
X536567Y297790D01*
X535630Y297913D01*
D02*
G37*
G36*
X640748Y303452D02*
X638961Y303276D01*
X637243Y302754D01*
X635659Y301908D01*
X634271Y300769D01*
X633131Y299381D01*
X632285Y297797D01*
X631764Y296078D01*
X631588Y294291D01*
X631764Y292504D01*
X632285Y290786D01*
X633131Y289202D01*
X634271Y287814D01*
X635659Y286675D01*
X637243Y285828D01*
X638961Y285307D01*
X640748Y285131D01*
X642535Y285307D01*
X644254Y285828D01*
X645837Y286675D01*
X647226Y287814D01*
X648365Y289202D01*
X649211Y290786D01*
X649732Y292504D01*
X649908Y294291D01*
X649732Y296078D01*
X649211Y297797D01*
X648365Y299381D01*
X647226Y300769D01*
X645837Y301908D01*
X644254Y302754D01*
X642535Y303276D01*
X640748Y303452D01*
D02*
G37*
G36*
X447835D02*
X446047Y303276D01*
X444329Y302754D01*
X442745Y301908D01*
X441357Y300769D01*
X440218Y299381D01*
X439371Y297797D01*
X438850Y296078D01*
X438674Y294291D01*
X438850Y292504D01*
X439371Y290786D01*
X440218Y289202D01*
X441357Y287814D01*
X442745Y286675D01*
X444329Y285828D01*
X446047Y285307D01*
X447835Y285131D01*
X449622Y285307D01*
X451340Y285828D01*
X452924Y286675D01*
X454312Y287814D01*
X455451Y289202D01*
X456298Y290786D01*
X456819Y292504D01*
X456995Y294291D01*
X456819Y296078D01*
X456298Y297797D01*
X455451Y299381D01*
X454312Y300769D01*
X452924Y301908D01*
X451340Y302754D01*
X449622Y303276D01*
X447835Y303452D01*
D02*
G37*
G36*
X555630Y297913D02*
X554693Y297790D01*
X553819Y297428D01*
X553069Y296852D01*
X552494Y296102D01*
X552132Y295229D01*
X552008Y294291D01*
X552132Y293354D01*
X552494Y292481D01*
X553069Y291730D01*
X553819Y291155D01*
X554693Y290793D01*
X555630Y290670D01*
X556567Y290793D01*
X556594Y290804D01*
X562660Y284738D01*
X562660Y284738D01*
X563238Y284351D01*
X563577Y284284D01*
X563527Y283784D01*
X558660D01*
X549117Y293327D01*
X549128Y293354D01*
X549252Y294291D01*
X549128Y295229D01*
X548766Y296102D01*
X548191Y296852D01*
X547441Y297428D01*
X546567Y297790D01*
X545630Y297913D01*
X544693Y297790D01*
X543819Y297428D01*
X543069Y296852D01*
X542494Y296102D01*
X542132Y295229D01*
X542008Y294291D01*
X542132Y293354D01*
X542494Y292481D01*
X543069Y291730D01*
X543819Y291155D01*
X544693Y290793D01*
X545630Y290670D01*
X546567Y290793D01*
X546594Y290804D01*
X556660Y280738D01*
X556660Y280738D01*
X557238Y280351D01*
X557577Y280284D01*
X557527Y279784D01*
X542660D01*
X529220Y293224D01*
Y297882D01*
X522039D01*
Y290701D01*
X526697D01*
X540288Y277110D01*
X540081Y276610D01*
X502953D01*
X502563Y276533D01*
X502232Y276311D01*
X502011Y275981D01*
X501933Y275590D01*
Y196850D01*
X502011Y196460D01*
X502232Y196129D01*
X502563Y195908D01*
X502953Y195831D01*
X581693D01*
X582083Y195908D01*
X582414Y196129D01*
X582635Y196460D01*
X582713Y196850D01*
Y275590D01*
X583064Y275984D01*
X583462Y276014D01*
X590738Y268738D01*
X591317Y268352D01*
X592000Y268216D01*
X592683Y268352D01*
X593262Y268738D01*
X593648Y269317D01*
X593784Y270000D01*
X593648Y270683D01*
X593262Y271262D01*
X585262Y279262D01*
X584683Y279648D01*
X584345Y279716D01*
X584394Y280216D01*
X587261D01*
X602216Y265261D01*
Y222000D01*
X602352Y221317D01*
X602738Y220738D01*
X603317Y220352D01*
X604000Y220216D01*
X604683Y220352D01*
X605262Y220738D01*
X605649Y221317D01*
X605716Y221655D01*
X606216Y221606D01*
Y212521D01*
X606352Y211839D01*
X606738Y211260D01*
X610999Y206999D01*
X611578Y206612D01*
X612261Y206476D01*
X612944Y206612D01*
X613522Y206999D01*
X613909Y207578D01*
X614045Y208261D01*
X613909Y208944D01*
X613522Y209522D01*
X609784Y213260D01*
Y268000D01*
X609649Y268683D01*
X609262Y269262D01*
X591262Y287262D01*
X590683Y287649D01*
X590000Y287784D01*
X564660D01*
X559117Y293327D01*
X559128Y293354D01*
X559251Y294291D01*
X559128Y295229D01*
X558766Y296102D01*
X558191Y296852D01*
X557441Y297428D01*
X556567Y297790D01*
X555630Y297913D01*
D02*
G37*
G36*
X451772Y279448D02*
X450845Y279326D01*
X449981Y278968D01*
X449239Y278399D01*
X448670Y277657D01*
X448312Y276793D01*
X448190Y275866D01*
X448312Y274939D01*
X448670Y274075D01*
X449239Y273333D01*
X449981Y272764D01*
X450845Y272406D01*
X451772Y272284D01*
X452699Y272406D01*
X453563Y272764D01*
X454304Y273333D01*
X454874Y274075D01*
X455231Y274939D01*
X455353Y275866D01*
X455231Y276793D01*
X454874Y277657D01*
X454304Y278399D01*
X453563Y278968D01*
X452699Y279326D01*
X451772Y279448D01*
D02*
G37*
G36*
X441772D02*
X440845Y279326D01*
X439981Y278968D01*
X439239Y278399D01*
X438670Y277657D01*
X438312Y276793D01*
X438190Y275866D01*
X438312Y274939D01*
X438670Y274075D01*
X439239Y273333D01*
X439981Y272764D01*
X440845Y272406D01*
X441772Y272284D01*
X442699Y272406D01*
X443563Y272764D01*
X444304Y273333D01*
X444874Y274075D01*
X445231Y274939D01*
X445354Y275866D01*
X445231Y276793D01*
X444874Y277657D01*
X444304Y278399D01*
X443563Y278968D01*
X442699Y279326D01*
X441772Y279448D01*
D02*
G37*
G36*
X485847Y273847D02*
X478154D01*
Y266154D01*
X485847D01*
Y273847D01*
D02*
G37*
G36*
X472000Y273880D02*
X470996Y273747D01*
X470060Y273360D01*
X469257Y272743D01*
X468640Y271940D01*
X468253Y271004D01*
X468120Y270000D01*
X468253Y268996D01*
X468640Y268060D01*
X469257Y267257D01*
X470060Y266640D01*
X470996Y266253D01*
X472000Y266120D01*
X473004Y266253D01*
X473940Y266640D01*
X474743Y267257D01*
X475360Y268060D01*
X475747Y268996D01*
X475880Y270000D01*
X475747Y271004D01*
X475360Y271940D01*
X474743Y272743D01*
X473940Y273360D01*
X473004Y273747D01*
X472000Y273880D01*
D02*
G37*
G36*
X451772Y269448D02*
X450845Y269326D01*
X449981Y268968D01*
X449239Y268399D01*
X448670Y267657D01*
X448312Y266793D01*
X448190Y265866D01*
X448312Y264939D01*
X448670Y264075D01*
X449239Y263333D01*
X449981Y262764D01*
X450845Y262406D01*
X451772Y262284D01*
X452699Y262406D01*
X453563Y262764D01*
X454304Y263333D01*
X454874Y264075D01*
X455231Y264939D01*
X455353Y265866D01*
X455231Y266793D01*
X454874Y267657D01*
X454304Y268399D01*
X453563Y268968D01*
X452699Y269326D01*
X451772Y269448D01*
D02*
G37*
G36*
X441772D02*
X440845Y269326D01*
X439981Y268968D01*
X439239Y268399D01*
X438670Y267657D01*
X438312Y266793D01*
X438190Y265866D01*
X438312Y264939D01*
X438670Y264075D01*
X439239Y263333D01*
X439981Y262764D01*
X440845Y262406D01*
X441772Y262284D01*
X442699Y262406D01*
X443563Y262764D01*
X444304Y263333D01*
X444874Y264075D01*
X445231Y264939D01*
X445354Y265866D01*
X445231Y266793D01*
X444874Y267657D01*
X444304Y268399D01*
X443563Y268968D01*
X442699Y269326D01*
X441772Y269448D01*
D02*
G37*
G36*
X645276Y265703D02*
X642126D01*
X641240Y265526D01*
X640488Y265024D01*
X639986Y264273D01*
X639810Y263387D01*
X639986Y262500D01*
X640488Y261749D01*
X641240Y261247D01*
X642126Y261071D01*
X645276D01*
X646162Y261247D01*
X646913Y261749D01*
X647415Y262500D01*
X647592Y263387D01*
X647415Y264273D01*
X646913Y265024D01*
X646162Y265526D01*
X645276Y265703D01*
D02*
G37*
G36*
X633347D02*
X627441D01*
X626554Y265526D01*
X625803Y265024D01*
X625301Y264273D01*
X625125Y263387D01*
X625301Y262500D01*
X625803Y261749D01*
X626554Y261247D01*
X627441Y261071D01*
X633347D01*
X634233Y261247D01*
X634984Y261749D01*
X635486Y262500D01*
X635663Y263387D01*
X635486Y264273D01*
X634984Y265024D01*
X634233Y265526D01*
X633347Y265703D01*
D02*
G37*
G36*
X451772Y259448D02*
X450845Y259326D01*
X449981Y258968D01*
X449239Y258399D01*
X448670Y257657D01*
X448312Y256793D01*
X448190Y255866D01*
X448312Y254939D01*
X448670Y254075D01*
X449239Y253333D01*
X449981Y252764D01*
X450845Y252406D01*
X451772Y252284D01*
X452699Y252406D01*
X453563Y252764D01*
X454304Y253333D01*
X454874Y254075D01*
X455231Y254939D01*
X455353Y255866D01*
X455231Y256793D01*
X454874Y257657D01*
X454304Y258399D01*
X453563Y258968D01*
X452699Y259326D01*
X451772Y259448D01*
D02*
G37*
G36*
X441772D02*
X440845Y259326D01*
X439981Y258968D01*
X439239Y258399D01*
X438670Y257657D01*
X438312Y256793D01*
X438190Y255866D01*
X438312Y254939D01*
X438670Y254075D01*
X439239Y253333D01*
X439981Y252764D01*
X440845Y252406D01*
X441772Y252284D01*
X442699Y252406D01*
X443563Y252764D01*
X444304Y253333D01*
X444874Y254075D01*
X445231Y254939D01*
X445354Y255866D01*
X445231Y256793D01*
X444874Y257657D01*
X444304Y258399D01*
X443563Y258968D01*
X442699Y259326D01*
X441772Y259448D01*
D02*
G37*
G36*
X451772Y249448D02*
X450845Y249326D01*
X449981Y248968D01*
X449239Y248399D01*
X448670Y247657D01*
X448312Y246793D01*
X448190Y245866D01*
X448312Y244939D01*
X448670Y244075D01*
X449239Y243333D01*
X449981Y242764D01*
X450845Y242406D01*
X451772Y242284D01*
X452699Y242406D01*
X453563Y242764D01*
X454304Y243333D01*
X454874Y244075D01*
X455231Y244939D01*
X455353Y245866D01*
X455231Y246793D01*
X454874Y247657D01*
X454304Y248399D01*
X453563Y248968D01*
X452699Y249326D01*
X451772Y249448D01*
D02*
G37*
G36*
X441772D02*
X440845Y249326D01*
X439981Y248968D01*
X439239Y248399D01*
X438670Y247657D01*
X438312Y246793D01*
X438190Y245866D01*
X438312Y244939D01*
X438670Y244075D01*
X439239Y243333D01*
X439981Y242764D01*
X440845Y242406D01*
X441772Y242284D01*
X442699Y242406D01*
X443563Y242764D01*
X444304Y243333D01*
X444874Y244075D01*
X445231Y244939D01*
X445354Y245866D01*
X445231Y246793D01*
X444874Y247657D01*
X444304Y248399D01*
X443563Y248968D01*
X442699Y249326D01*
X441772Y249448D01*
D02*
G37*
G36*
X475846Y243847D02*
X473000D01*
Y241000D01*
X475846D01*
Y243847D01*
D02*
G37*
G36*
X471000D02*
X468153D01*
Y241000D01*
X471000D01*
Y243847D01*
D02*
G37*
G36*
X475846Y239000D02*
X473000D01*
Y236154D01*
X475846D01*
Y239000D01*
D02*
G37*
G36*
X471000D02*
X468153D01*
Y236154D01*
X471000D01*
Y239000D01*
D02*
G37*
G36*
X482000Y243880D02*
X480996Y243747D01*
X480060Y243360D01*
X479257Y242743D01*
X478640Y241940D01*
X478253Y241004D01*
X478120Y240000D01*
X478253Y238996D01*
X478640Y238060D01*
X479257Y237257D01*
X480060Y236640D01*
X480996Y236253D01*
X482000Y236120D01*
X483004Y236253D01*
X483940Y236640D01*
X484743Y237257D01*
X485360Y238060D01*
X485747Y238996D01*
X485880Y240000D01*
X485747Y241004D01*
X485360Y241940D01*
X484743Y242743D01*
X483940Y243360D01*
X483004Y243747D01*
X482000Y243880D01*
D02*
G37*
G36*
X631850Y259886D02*
X631156Y259748D01*
X630567Y259355D01*
X630174Y258766D01*
X630035Y258072D01*
X630174Y257377D01*
X630567Y256789D01*
X630777Y256648D01*
Y256148D01*
X630567Y256008D01*
X630174Y255419D01*
X630035Y254725D01*
X630174Y254030D01*
X630567Y253442D01*
X630777Y253302D01*
Y252802D01*
X630567Y252662D01*
X630174Y252073D01*
X630035Y251379D01*
X630174Y250684D01*
X630567Y250096D01*
X630777Y249955D01*
Y249455D01*
X630567Y249315D01*
X630174Y248726D01*
X630035Y248032D01*
X630174Y247337D01*
X630567Y246749D01*
X630777Y246609D01*
Y246109D01*
X630567Y245969D01*
X630174Y245380D01*
X630035Y244686D01*
X630174Y243991D01*
X630567Y243403D01*
X630777Y243262D01*
Y242762D01*
X630567Y242622D01*
X630174Y242033D01*
X630035Y241339D01*
X630174Y240644D01*
X630567Y240056D01*
X630777Y239916D01*
Y239416D01*
X630567Y239276D01*
X630174Y238687D01*
X630035Y237993D01*
X630174Y237298D01*
X630567Y236710D01*
X630777Y236569D01*
Y236069D01*
X630567Y235929D01*
X630174Y235340D01*
X630035Y234646D01*
X630174Y233951D01*
X630567Y233363D01*
X631156Y232969D01*
X631850Y232831D01*
X632544Y232969D01*
X633133Y233363D01*
X633526Y233951D01*
X633664Y234646D01*
X633526Y235340D01*
X633133Y235929D01*
X632923Y236069D01*
Y236569D01*
X633133Y236710D01*
X633526Y237298D01*
X633664Y237993D01*
X633526Y238687D01*
X633133Y239276D01*
X632923Y239416D01*
Y239916D01*
X633133Y240056D01*
X633526Y240644D01*
X633664Y241339D01*
X633526Y242033D01*
X633133Y242622D01*
X632923Y242762D01*
Y243262D01*
X633133Y243403D01*
X633526Y243991D01*
X633664Y244686D01*
X633526Y245380D01*
X633133Y245969D01*
X632923Y246109D01*
Y246609D01*
X633133Y246749D01*
X633526Y247337D01*
X633664Y248032D01*
X633526Y248726D01*
X633133Y249315D01*
X632923Y249455D01*
Y249955D01*
X633133Y250096D01*
X633526Y250684D01*
X633664Y251379D01*
X633526Y252073D01*
X633133Y252662D01*
X632923Y252802D01*
Y253302D01*
X633133Y253442D01*
X633526Y254030D01*
X633664Y254725D01*
X633526Y255419D01*
X633133Y256008D01*
X632923Y256148D01*
Y256648D01*
X633133Y256789D01*
X633526Y257377D01*
X633664Y258072D01*
X633526Y258766D01*
X633133Y259355D01*
X632544Y259748D01*
X631850Y259886D01*
D02*
G37*
G36*
X620000Y281784D02*
X619317Y281648D01*
X618738Y281262D01*
X618352Y280683D01*
X618216Y280000D01*
Y246937D01*
X618352Y246254D01*
X618738Y245676D01*
X624326Y240088D01*
X624904Y239702D01*
X624973Y239688D01*
X625050Y239574D01*
X625163Y239140D01*
X624860Y238687D01*
X624721Y237993D01*
X624860Y237298D01*
X625253Y236710D01*
X625463Y236569D01*
Y236069D01*
X625253Y235929D01*
X624860Y235340D01*
X624721Y234646D01*
X624860Y233951D01*
X625253Y233363D01*
X625842Y232969D01*
X626536Y232831D01*
X627230Y232969D01*
X627819Y233363D01*
X628212Y233951D01*
X628350Y234646D01*
X628212Y235340D01*
X627819Y235929D01*
X627608Y236069D01*
Y236569D01*
X627819Y236710D01*
X628212Y237298D01*
X628350Y237993D01*
X628212Y238687D01*
X627819Y239276D01*
X627609Y239416D01*
Y239916D01*
X627819Y240056D01*
X628212Y240644D01*
X628350Y241339D01*
X628212Y242033D01*
X627819Y242622D01*
X627608Y242762D01*
Y243262D01*
X627819Y243403D01*
X628212Y243991D01*
X628350Y244686D01*
X628212Y245380D01*
X627819Y245969D01*
X627609Y246109D01*
Y246609D01*
X627819Y246749D01*
X628212Y247337D01*
X628350Y248032D01*
X628212Y248726D01*
X627819Y249315D01*
X627608Y249455D01*
Y249955D01*
X627819Y250096D01*
X628212Y250684D01*
X628350Y251379D01*
X628212Y252073D01*
X627819Y252662D01*
X627609Y252802D01*
Y253302D01*
X627819Y253442D01*
X628212Y254030D01*
X628350Y254725D01*
X628212Y255419D01*
X627819Y256008D01*
X627608Y256148D01*
Y256648D01*
X627819Y256789D01*
X628212Y257377D01*
X628350Y258072D01*
X628212Y258766D01*
X627819Y259355D01*
X627230Y259748D01*
X626536Y259886D01*
X625842Y259748D01*
X625253Y259355D01*
X624860Y258766D01*
X624721Y258072D01*
X624860Y257377D01*
X625253Y256789D01*
X625463Y256648D01*
Y256148D01*
X625253Y256008D01*
X624860Y255419D01*
X624721Y254725D01*
X624860Y254030D01*
X625253Y253442D01*
X625462Y253302D01*
Y252802D01*
X625253Y252662D01*
X624860Y252073D01*
X624721Y251379D01*
X624860Y250684D01*
X625253Y250096D01*
X625463Y249955D01*
Y249455D01*
X625253Y249315D01*
X624860Y248726D01*
X624721Y248032D01*
X624860Y247337D01*
X625253Y246749D01*
X625462Y246609D01*
Y246109D01*
X625253Y245969D01*
X624860Y245380D01*
X624834Y245250D01*
X624355Y245105D01*
X621784Y247676D01*
Y280000D01*
X621649Y280683D01*
X621262Y281262D01*
X620683Y281648D01*
X620000Y281784D01*
D02*
G37*
G36*
X451772Y239448D02*
X450845Y239326D01*
X449981Y238968D01*
X449239Y238399D01*
X448670Y237657D01*
X448312Y236793D01*
X448190Y235866D01*
X448312Y234939D01*
X448670Y234075D01*
X449239Y233333D01*
X449981Y232764D01*
X450845Y232406D01*
X451772Y232284D01*
X452699Y232406D01*
X453563Y232764D01*
X454304Y233333D01*
X454874Y234075D01*
X455231Y234939D01*
X455353Y235866D01*
X455231Y236793D01*
X454874Y237657D01*
X454304Y238399D01*
X453563Y238968D01*
X452699Y239326D01*
X451772Y239448D01*
D02*
G37*
G36*
X441772D02*
X440845Y239326D01*
X439981Y238968D01*
X439239Y238399D01*
X438670Y237657D01*
X438312Y236793D01*
X438190Y235866D01*
X438312Y234939D01*
X438670Y234075D01*
X439239Y233333D01*
X439981Y232764D01*
X440845Y232406D01*
X441772Y232284D01*
X442699Y232406D01*
X443563Y232764D01*
X444304Y233333D01*
X444874Y234075D01*
X445231Y234939D01*
X445354Y235866D01*
X445231Y236793D01*
X444874Y237657D01*
X444304Y238399D01*
X443563Y238968D01*
X442699Y239326D01*
X441772Y239448D01*
D02*
G37*
G36*
X645276Y231647D02*
X642126D01*
X641240Y231470D01*
X640488Y230968D01*
X639986Y230217D01*
X639810Y229331D01*
X639986Y228444D01*
X640488Y227693D01*
X641240Y227191D01*
X642126Y227015D01*
X645276D01*
X646162Y227191D01*
X646913Y227693D01*
X647415Y228444D01*
X647592Y229331D01*
X647415Y230217D01*
X646913Y230968D01*
X646162Y231470D01*
X645276Y231647D01*
D02*
G37*
G36*
X633347D02*
X627441D01*
X626554Y231470D01*
X625803Y230968D01*
X625301Y230217D01*
X625125Y229331D01*
X625301Y228444D01*
X625803Y227693D01*
X626554Y227191D01*
X627441Y227015D01*
X633347D01*
X634233Y227191D01*
X634984Y227693D01*
X635486Y228444D01*
X635663Y229331D01*
X635486Y230217D01*
X634984Y230968D01*
X634233Y231470D01*
X633347Y231647D01*
D02*
G37*
G36*
X451772Y229448D02*
X450845Y229326D01*
X449981Y228968D01*
X449239Y228399D01*
X448670Y227657D01*
X448312Y226793D01*
X448190Y225866D01*
X448312Y224939D01*
X448670Y224075D01*
X449239Y223333D01*
X449981Y222764D01*
X450845Y222406D01*
X451772Y222284D01*
X452699Y222406D01*
X453563Y222764D01*
X454304Y223333D01*
X454874Y224075D01*
X455231Y224939D01*
X455353Y225866D01*
X455231Y226793D01*
X454874Y227657D01*
X454304Y228399D01*
X453563Y228968D01*
X452699Y229326D01*
X451772Y229448D01*
D02*
G37*
G36*
X441772D02*
X440845Y229326D01*
X439981Y228968D01*
X439239Y228399D01*
X438670Y227657D01*
X438312Y226793D01*
X438190Y225866D01*
X438312Y224939D01*
X438670Y224075D01*
X439239Y223333D01*
X439981Y222764D01*
X440845Y222406D01*
X441772Y222284D01*
X442699Y222406D01*
X443563Y222764D01*
X444304Y223333D01*
X444874Y224075D01*
X445231Y224939D01*
X445354Y225866D01*
X445231Y226793D01*
X444874Y227657D01*
X444304Y228399D01*
X443563Y228968D01*
X442699Y229326D01*
X441772Y229448D01*
D02*
G37*
G36*
X451772Y219448D02*
X450845Y219326D01*
X449981Y218968D01*
X449239Y218399D01*
X448670Y217657D01*
X448312Y216793D01*
X448190Y215866D01*
X448312Y214939D01*
X448670Y214075D01*
X449239Y213333D01*
X449981Y212764D01*
X450845Y212406D01*
X451772Y212284D01*
X452699Y212406D01*
X453563Y212764D01*
X454304Y213333D01*
X454874Y214075D01*
X455231Y214939D01*
X455353Y215866D01*
X455231Y216793D01*
X454874Y217657D01*
X454304Y218399D01*
X453563Y218968D01*
X452699Y219326D01*
X451772Y219448D01*
D02*
G37*
G36*
X441772D02*
X440845Y219326D01*
X439981Y218968D01*
X439239Y218399D01*
X438670Y217657D01*
X438312Y216793D01*
X438190Y215866D01*
X438312Y214939D01*
X438670Y214075D01*
X439239Y213333D01*
X439981Y212764D01*
X440845Y212406D01*
X441772Y212284D01*
X442699Y212406D01*
X443563Y212764D01*
X444304Y213333D01*
X444874Y214075D01*
X445231Y214939D01*
X445354Y215866D01*
X445231Y216793D01*
X444874Y217657D01*
X444304Y218399D01*
X443563Y218968D01*
X442699Y219326D01*
X441772Y219448D01*
D02*
G37*
G36*
X451772Y209448D02*
X450845Y209326D01*
X449981Y208968D01*
X449239Y208399D01*
X448670Y207657D01*
X448312Y206793D01*
X448190Y205866D01*
X448312Y204939D01*
X448670Y204075D01*
X449239Y203333D01*
X449981Y202764D01*
X450845Y202406D01*
X451772Y202284D01*
X452699Y202406D01*
X453563Y202764D01*
X454304Y203333D01*
X454874Y204075D01*
X455231Y204939D01*
X455353Y205866D01*
X455231Y206793D01*
X454874Y207657D01*
X454304Y208399D01*
X453563Y208968D01*
X452699Y209326D01*
X451772Y209448D01*
D02*
G37*
G36*
X441772D02*
X440845Y209326D01*
X439981Y208968D01*
X439239Y208399D01*
X438670Y207657D01*
X438312Y206793D01*
X438190Y205866D01*
X438312Y204939D01*
X438670Y204075D01*
X439239Y203333D01*
X439981Y202764D01*
X440845Y202406D01*
X441772Y202284D01*
X442699Y202406D01*
X443563Y202764D01*
X444304Y203333D01*
X444874Y204075D01*
X445231Y204939D01*
X445354Y205866D01*
X445231Y206793D01*
X444874Y207657D01*
X444304Y208399D01*
X443563Y208968D01*
X442699Y209326D01*
X441772Y209448D01*
D02*
G37*
G36*
X451772Y199448D02*
X450845Y199326D01*
X449981Y198968D01*
X449239Y198399D01*
X448670Y197657D01*
X448312Y196793D01*
X448190Y195866D01*
X448312Y194939D01*
X448670Y194075D01*
X449239Y193333D01*
X449981Y192764D01*
X450845Y192406D01*
X451772Y192284D01*
X452699Y192406D01*
X453563Y192764D01*
X454304Y193333D01*
X454874Y194075D01*
X455231Y194939D01*
X455353Y195866D01*
X455231Y196793D01*
X454874Y197657D01*
X454304Y198399D01*
X453563Y198968D01*
X452699Y199326D01*
X451772Y199448D01*
D02*
G37*
G36*
X441772D02*
X440845Y199326D01*
X439981Y198968D01*
X439239Y198399D01*
X438670Y197657D01*
X438312Y196793D01*
X438190Y195866D01*
X438312Y194939D01*
X438670Y194075D01*
X439239Y193333D01*
X439981Y192764D01*
X440845Y192406D01*
X441772Y192284D01*
X442699Y192406D01*
X443563Y192764D01*
X444304Y193333D01*
X444874Y194075D01*
X445231Y194939D01*
X445354Y195866D01*
X445231Y196793D01*
X444874Y197657D01*
X444304Y198399D01*
X443563Y198968D01*
X442699Y199326D01*
X441772Y199448D01*
D02*
G37*
G36*
X451772Y189448D02*
X450845Y189326D01*
X449981Y188968D01*
X449239Y188399D01*
X448670Y187657D01*
X448312Y186793D01*
X448190Y185866D01*
X448312Y184939D01*
X448670Y184075D01*
X449239Y183333D01*
X449981Y182764D01*
X450845Y182406D01*
X451772Y182284D01*
X452699Y182406D01*
X453563Y182764D01*
X454304Y183333D01*
X454874Y184075D01*
X455231Y184939D01*
X455353Y185866D01*
X455231Y186793D01*
X454874Y187657D01*
X454304Y188399D01*
X453563Y188968D01*
X452699Y189326D01*
X451772Y189448D01*
D02*
G37*
G36*
X441772D02*
X440845Y189326D01*
X439981Y188968D01*
X439239Y188399D01*
X438670Y187657D01*
X438312Y186793D01*
X438190Y185866D01*
X438312Y184939D01*
X438670Y184075D01*
X439239Y183333D01*
X439981Y182764D01*
X440845Y182406D01*
X441772Y182284D01*
X442699Y182406D01*
X443563Y182764D01*
X444304Y183333D01*
X444874Y184075D01*
X445231Y184939D01*
X445354Y185866D01*
X445231Y186793D01*
X444874Y187657D01*
X444304Y188399D01*
X443563Y188968D01*
X442699Y189326D01*
X441772Y189448D01*
D02*
G37*
G36*
X451772Y179448D02*
X450845Y179326D01*
X449981Y178968D01*
X449239Y178399D01*
X448670Y177657D01*
X448312Y176793D01*
X448190Y175866D01*
X448312Y174939D01*
X448670Y174075D01*
X449239Y173333D01*
X449981Y172764D01*
X450845Y172406D01*
X451772Y172284D01*
X452699Y172406D01*
X453563Y172764D01*
X454304Y173333D01*
X454874Y174075D01*
X455231Y174939D01*
X455353Y175866D01*
X455231Y176793D01*
X454874Y177657D01*
X454304Y178399D01*
X453563Y178968D01*
X452699Y179326D01*
X451772Y179448D01*
D02*
G37*
G36*
X441772D02*
X440845Y179326D01*
X439981Y178968D01*
X439239Y178399D01*
X438670Y177657D01*
X438312Y176793D01*
X438190Y175866D01*
X438312Y174939D01*
X438670Y174075D01*
X439239Y173333D01*
X439981Y172764D01*
X440845Y172406D01*
X441772Y172284D01*
X442699Y172406D01*
X443563Y172764D01*
X444304Y173333D01*
X444874Y174075D01*
X445231Y174939D01*
X445354Y175866D01*
X445231Y176793D01*
X444874Y177657D01*
X444304Y178399D01*
X443563Y178968D01*
X442699Y179326D01*
X441772Y179448D01*
D02*
G37*
G36*
X471457Y169938D02*
X470607Y169826D01*
X469815Y169498D01*
X469135Y168976D01*
X468613Y168296D01*
X468285Y167503D01*
X468173Y166654D01*
X468261Y165981D01*
X460409Y158129D01*
X460022Y157550D01*
X459886Y156868D01*
Y116504D01*
X452705Y109323D01*
X452699Y109326D01*
X451772Y109448D01*
X450845Y109326D01*
X449981Y108968D01*
X449239Y108399D01*
X448670Y107657D01*
X448312Y106793D01*
X448190Y105866D01*
X448312Y104939D01*
X448670Y104075D01*
X449239Y103333D01*
X449981Y102764D01*
X450845Y102406D01*
X451772Y102284D01*
X452699Y102406D01*
X453563Y102764D01*
X454304Y103333D01*
X454874Y104075D01*
X455231Y104939D01*
X455353Y105866D01*
X455231Y106793D01*
X455229Y106800D01*
X462932Y114503D01*
X462932Y114504D01*
X463319Y115082D01*
X463455Y115765D01*
Y156128D01*
X470785Y163458D01*
X471457Y163370D01*
X472307Y163481D01*
X473099Y163810D01*
X473779Y164331D01*
X474301Y165012D01*
X474629Y165804D01*
X474741Y166654D01*
X474629Y167503D01*
X474301Y168296D01*
X473779Y168976D01*
X473099Y169498D01*
X472307Y169826D01*
X471457Y169938D01*
D02*
G37*
G36*
X451772Y169448D02*
X450845Y169326D01*
X449981Y168968D01*
X449239Y168399D01*
X448670Y167657D01*
X448312Y166793D01*
X448190Y165866D01*
X448312Y164939D01*
X448670Y164075D01*
X449239Y163333D01*
X449981Y162764D01*
X450845Y162406D01*
X451772Y162284D01*
X452699Y162406D01*
X453563Y162764D01*
X454304Y163333D01*
X454874Y164075D01*
X455231Y164939D01*
X455353Y165866D01*
X455231Y166793D01*
X454874Y167657D01*
X454304Y168399D01*
X453563Y168968D01*
X452699Y169326D01*
X451772Y169448D01*
D02*
G37*
G36*
X441772D02*
X440845Y169326D01*
X439981Y168968D01*
X439239Y168399D01*
X438670Y167657D01*
X438312Y166793D01*
X438190Y165866D01*
X438312Y164939D01*
X438670Y164075D01*
X439239Y163333D01*
X439981Y162764D01*
X440845Y162406D01*
X441772Y162284D01*
X442699Y162406D01*
X443563Y162764D01*
X444304Y163333D01*
X444874Y164075D01*
X445231Y164939D01*
X445354Y165866D01*
X445231Y166793D01*
X444874Y167657D01*
X444304Y168399D01*
X443563Y168968D01*
X442699Y169326D01*
X441772Y169448D01*
D02*
G37*
G36*
X471457Y159938D02*
X470607Y159826D01*
X469815Y159498D01*
X469135Y158976D01*
X468613Y158296D01*
X468285Y157503D01*
X468173Y156653D01*
X468285Y155804D01*
X468613Y155011D01*
X469135Y154331D01*
X469815Y153809D01*
X470607Y153481D01*
X471457Y153369D01*
X472307Y153481D01*
X473099Y153809D01*
X473779Y154331D01*
X474301Y155011D01*
X474629Y155804D01*
X474741Y156653D01*
X474629Y157503D01*
X474301Y158296D01*
X473779Y158976D01*
X473099Y159498D01*
X472307Y159826D01*
X471457Y159938D01*
D02*
G37*
G36*
X451772Y159448D02*
X450845Y159326D01*
X449981Y158968D01*
X449239Y158399D01*
X448670Y157657D01*
X448312Y156793D01*
X448190Y155866D01*
X448312Y154939D01*
X448670Y154075D01*
X449239Y153333D01*
X449981Y152764D01*
X450845Y152406D01*
X451772Y152284D01*
X452699Y152406D01*
X453563Y152764D01*
X454304Y153333D01*
X454874Y154075D01*
X455231Y154939D01*
X455353Y155866D01*
X455231Y156793D01*
X454874Y157657D01*
X454304Y158399D01*
X453563Y158968D01*
X452699Y159326D01*
X451772Y159448D01*
D02*
G37*
G36*
X441772D02*
X440845Y159326D01*
X439981Y158968D01*
X439239Y158399D01*
X438670Y157657D01*
X438312Y156793D01*
X438190Y155866D01*
X438312Y154939D01*
X438670Y154075D01*
X439239Y153333D01*
X439981Y152764D01*
X440845Y152406D01*
X441772Y152284D01*
X442699Y152406D01*
X443563Y152764D01*
X444304Y153333D01*
X444874Y154075D01*
X445231Y154939D01*
X445354Y155866D01*
X445231Y156793D01*
X444874Y157657D01*
X444304Y158399D01*
X443563Y158968D01*
X442699Y159326D01*
X441772Y159448D01*
D02*
G37*
G36*
X474713Y149909D02*
X468201D01*
Y143398D01*
X474713D01*
Y149909D01*
D02*
G37*
G36*
X451772Y149448D02*
X450845Y149326D01*
X449981Y148968D01*
X449239Y148399D01*
X448670Y147657D01*
X448312Y146793D01*
X448190Y145866D01*
X448312Y144939D01*
X448670Y144075D01*
X449239Y143333D01*
X449981Y142764D01*
X450845Y142406D01*
X451772Y142284D01*
X452699Y142406D01*
X453563Y142764D01*
X454304Y143333D01*
X454874Y144075D01*
X455231Y144939D01*
X455353Y145866D01*
X455231Y146793D01*
X454874Y147657D01*
X454304Y148399D01*
X453563Y148968D01*
X452699Y149326D01*
X451772Y149448D01*
D02*
G37*
G36*
X441772D02*
X440845Y149326D01*
X439981Y148968D01*
X439239Y148399D01*
X438670Y147657D01*
X438312Y146793D01*
X438190Y145866D01*
X438312Y144939D01*
X438670Y144075D01*
X439239Y143333D01*
X439981Y142764D01*
X440845Y142406D01*
X441772Y142284D01*
X442699Y142406D01*
X443563Y142764D01*
X444304Y143333D01*
X444874Y144075D01*
X445231Y144939D01*
X445354Y145866D01*
X445231Y146793D01*
X444874Y147657D01*
X444304Y148399D01*
X443563Y148968D01*
X442699Y149326D01*
X441772Y149448D01*
D02*
G37*
G36*
X451772Y139448D02*
X450845Y139326D01*
X449981Y138968D01*
X449239Y138399D01*
X448670Y137657D01*
X448312Y136793D01*
X448190Y135866D01*
X448312Y134939D01*
X448670Y134075D01*
X449239Y133333D01*
X449981Y132764D01*
X450845Y132406D01*
X451772Y132284D01*
X452699Y132406D01*
X453563Y132764D01*
X454304Y133333D01*
X454874Y134075D01*
X455231Y134939D01*
X455353Y135866D01*
X455231Y136793D01*
X454874Y137657D01*
X454304Y138399D01*
X453563Y138968D01*
X452699Y139326D01*
X451772Y139448D01*
D02*
G37*
G36*
X441772D02*
X440845Y139326D01*
X439981Y138968D01*
X439239Y138399D01*
X438670Y137657D01*
X438312Y136793D01*
X438190Y135866D01*
X438312Y134939D01*
X438670Y134075D01*
X439239Y133333D01*
X439981Y132764D01*
X440845Y132406D01*
X441772Y132284D01*
X442699Y132406D01*
X443563Y132764D01*
X444304Y133333D01*
X444874Y134075D01*
X445231Y134939D01*
X445354Y135866D01*
X445231Y136793D01*
X444874Y137657D01*
X444304Y138399D01*
X443563Y138968D01*
X442699Y139326D01*
X441772Y139448D01*
D02*
G37*
G36*
X451772Y129448D02*
X450845Y129326D01*
X449981Y128968D01*
X449239Y128399D01*
X448670Y127657D01*
X448312Y126793D01*
X448190Y125866D01*
X448312Y124939D01*
X448670Y124075D01*
X449239Y123333D01*
X449981Y122764D01*
X450845Y122406D01*
X451772Y122284D01*
X452699Y122406D01*
X453563Y122764D01*
X454304Y123333D01*
X454874Y124075D01*
X455231Y124939D01*
X455353Y125866D01*
X455231Y126793D01*
X454874Y127657D01*
X454304Y128399D01*
X453563Y128968D01*
X452699Y129326D01*
X451772Y129448D01*
D02*
G37*
G36*
X441772D02*
X440845Y129326D01*
X439981Y128968D01*
X439239Y128399D01*
X438670Y127657D01*
X438312Y126793D01*
X438190Y125866D01*
X438312Y124939D01*
X438670Y124075D01*
X439239Y123333D01*
X439981Y122764D01*
X440845Y122406D01*
X441772Y122284D01*
X442699Y122406D01*
X443563Y122764D01*
X444304Y123333D01*
X444874Y124075D01*
X445231Y124939D01*
X445354Y125866D01*
X445231Y126793D01*
X444874Y127657D01*
X444304Y128399D01*
X443563Y128968D01*
X442699Y129326D01*
X441772Y129448D01*
D02*
G37*
G36*
X530512Y127397D02*
X529084Y127257D01*
X527711Y126840D01*
X526446Y126164D01*
X525337Y125254D01*
X524427Y124145D01*
X523750Y122880D01*
X523334Y121507D01*
X523193Y120079D01*
X523334Y118651D01*
X523750Y117278D01*
X524427Y116013D01*
X525337Y114904D01*
X526446Y113994D01*
X527711Y113317D01*
X529084Y112901D01*
X530512Y112760D01*
X531940Y112901D01*
X533313Y113317D01*
X534578Y113994D01*
X535687Y114904D01*
X536597Y116013D01*
X537273Y117278D01*
X537690Y118651D01*
X537830Y120079D01*
X537690Y121507D01*
X537273Y122880D01*
X536597Y124145D01*
X535687Y125254D01*
X534578Y126164D01*
X533313Y126840D01*
X531940Y127257D01*
X530512Y127397D01*
D02*
G37*
G36*
X451772Y119448D02*
X450845Y119326D01*
X449981Y118968D01*
X449239Y118399D01*
X448670Y117657D01*
X448312Y116793D01*
X448190Y115866D01*
X448312Y114939D01*
X448670Y114075D01*
X449239Y113333D01*
X449981Y112764D01*
X450845Y112406D01*
X451772Y112284D01*
X452699Y112406D01*
X453563Y112764D01*
X454304Y113333D01*
X454874Y114075D01*
X455231Y114939D01*
X455353Y115866D01*
X455231Y116793D01*
X454874Y117657D01*
X454304Y118399D01*
X453563Y118968D01*
X452699Y119326D01*
X451772Y119448D01*
D02*
G37*
G36*
X441772D02*
X440845Y119326D01*
X439981Y118968D01*
X439239Y118399D01*
X438670Y117657D01*
X438312Y116793D01*
X438190Y115866D01*
X438312Y114939D01*
X438670Y114075D01*
X439239Y113333D01*
X439981Y112764D01*
X440845Y112406D01*
X441772Y112284D01*
X442699Y112406D01*
X443563Y112764D01*
X444304Y113333D01*
X444874Y114075D01*
X445231Y114939D01*
X445354Y115866D01*
X445231Y116793D01*
X444874Y117657D01*
X444304Y118399D01*
X443563Y118968D01*
X442699Y119326D01*
X441772Y119448D01*
D02*
G37*
G36*
X558071Y127397D02*
X556643Y127257D01*
X555270Y126840D01*
X554005Y126164D01*
X552896Y125254D01*
X551986Y124145D01*
X551309Y122880D01*
X550893Y121507D01*
X550752Y120079D01*
X550893Y118651D01*
X551309Y117278D01*
X551986Y116013D01*
X552896Y114904D01*
X554005Y113994D01*
X554806Y113565D01*
X554813Y113277D01*
X554744Y113032D01*
X553620Y112566D01*
X552593Y111778D01*
X551804Y110750D01*
X551308Y109552D01*
X551139Y108268D01*
X551308Y106983D01*
X551804Y105786D01*
X552593Y104758D01*
X553620Y103969D01*
X554818Y103473D01*
X556102Y103304D01*
X557387Y103473D01*
X558584Y103969D01*
X559612Y104758D01*
X560401Y105786D01*
X560897Y106983D01*
X561066Y108268D01*
X560897Y109552D01*
X560401Y110750D01*
X559612Y111778D01*
X558883Y112338D01*
X559030Y112855D01*
X559499Y112901D01*
X560872Y113317D01*
X562137Y113994D01*
X563246Y114904D01*
X564156Y116013D01*
X564832Y117278D01*
X565249Y118651D01*
X565390Y120079D01*
X565249Y121507D01*
X564832Y122880D01*
X564156Y124145D01*
X563246Y125254D01*
X562137Y126164D01*
X560872Y126840D01*
X559499Y127257D01*
X558071Y127397D01*
D02*
G37*
G36*
X441772Y109448D02*
X440845Y109326D01*
X439981Y108968D01*
X439239Y108399D01*
X438670Y107657D01*
X438312Y106793D01*
X438190Y105866D01*
X438312Y104939D01*
X438670Y104075D01*
X439239Y103333D01*
X439981Y102764D01*
X440845Y102406D01*
X441772Y102284D01*
X442699Y102406D01*
X443563Y102764D01*
X444304Y103333D01*
X444874Y104075D01*
X445231Y104939D01*
X445354Y105866D01*
X445231Y106793D01*
X444874Y107657D01*
X444304Y108399D01*
X443563Y108968D01*
X442699Y109326D01*
X441772Y109448D01*
D02*
G37*
G36*
X471457Y179938D02*
X470607Y179826D01*
X469815Y179498D01*
X469135Y178976D01*
X468613Y178296D01*
X468285Y177504D01*
X468173Y176654D01*
X468285Y175804D01*
X468613Y175012D01*
X469135Y174331D01*
X469815Y173810D01*
X470607Y173481D01*
X471457Y173370D01*
X471962Y173436D01*
X476216Y169182D01*
Y122834D01*
X452705Y99323D01*
X452699Y99326D01*
X451772Y99448D01*
X450845Y99326D01*
X449981Y98968D01*
X449239Y98399D01*
X448670Y97657D01*
X448312Y96793D01*
X448190Y95866D01*
X448312Y94939D01*
X448670Y94075D01*
X449239Y93333D01*
X449981Y92764D01*
X450845Y92406D01*
X451772Y92284D01*
X452699Y92406D01*
X453563Y92764D01*
X454304Y93333D01*
X454874Y94075D01*
X455231Y94939D01*
X455353Y95866D01*
X455231Y96793D01*
X455229Y96800D01*
X479262Y120833D01*
X479262Y120833D01*
X479648Y121412D01*
X479784Y122095D01*
Y169921D01*
X479784Y169921D01*
X479648Y170604D01*
X479262Y171183D01*
X479262Y171183D01*
X474630Y175814D01*
X474741Y176654D01*
X474629Y177504D01*
X474301Y178296D01*
X473779Y178976D01*
X473099Y179498D01*
X472307Y179826D01*
X471457Y179938D01*
D02*
G37*
G36*
X442772Y99296D02*
Y96866D01*
X445201D01*
X444874Y97657D01*
X444304Y98399D01*
X443563Y98968D01*
X442772Y99296D01*
D02*
G37*
G36*
X440772Y99296D02*
X439981Y98968D01*
X439239Y98399D01*
X438670Y97657D01*
X438342Y96866D01*
X440772D01*
Y99296D01*
D02*
G37*
G36*
X445201Y94866D02*
X442772D01*
Y92437D01*
X443563Y92764D01*
X444304Y93333D01*
X444874Y94075D01*
X445201Y94866D01*
D02*
G37*
G36*
X440772D02*
X438342D01*
X438670Y94075D01*
X439239Y93333D01*
X439981Y92764D01*
X440772Y92437D01*
Y94866D01*
D02*
G37*
G36*
X442772Y89296D02*
Y86866D01*
X445201D01*
X444874Y87657D01*
X444304Y88399D01*
X443563Y88968D01*
X442772Y89296D01*
D02*
G37*
G36*
X440772Y89296D02*
X439981Y88968D01*
X439239Y88399D01*
X438670Y87657D01*
X438342Y86866D01*
X440772D01*
Y89296D01*
D02*
G37*
G36*
X445201Y84866D02*
X442772D01*
Y82437D01*
X443563Y82764D01*
X444304Y83333D01*
X444874Y84075D01*
X445201Y84866D01*
D02*
G37*
G36*
X440772D02*
X438342D01*
X438670Y84075D01*
X439239Y83333D01*
X439981Y82764D01*
X440772Y82437D01*
Y84866D01*
D02*
G37*
G36*
X532480Y89609D02*
X531196Y89440D01*
X529998Y88944D01*
X528970Y88156D01*
X528182Y87128D01*
X527686Y85930D01*
X527517Y84646D01*
X527686Y83361D01*
X528182Y82164D01*
X528970Y81136D01*
X529998Y80347D01*
X531196Y79851D01*
X532480Y79682D01*
X533765Y79851D01*
X534962Y80347D01*
X535990Y81136D01*
X536779Y82164D01*
X537275Y83361D01*
X537444Y84646D01*
X537275Y85930D01*
X536779Y87128D01*
X535990Y88156D01*
X534962Y88944D01*
X533765Y89440D01*
X532480Y89609D01*
D02*
G37*
G36*
X544291Y80153D02*
X542864Y80013D01*
X541491Y79596D01*
X540225Y78920D01*
X539116Y78010D01*
X538206Y76901D01*
X537530Y75635D01*
X537113Y74262D01*
X536973Y72835D01*
X537113Y71407D01*
X537530Y70034D01*
X538206Y68769D01*
X539116Y67659D01*
X540225Y66749D01*
X541491Y66073D01*
X542864Y65657D01*
X544291Y65516D01*
X545719Y65657D01*
X547092Y66073D01*
X548357Y66749D01*
X549466Y67659D01*
X550377Y68769D01*
X551053Y70034D01*
X551469Y71407D01*
X551610Y72835D01*
X551469Y74262D01*
X551053Y75635D01*
X550377Y76901D01*
X549466Y78010D01*
X548357Y78920D01*
X547092Y79596D01*
X545719Y80013D01*
X544291Y80153D01*
D02*
G37*
G36*
X451772Y89448D02*
X450845Y89326D01*
X449981Y88968D01*
X449239Y88399D01*
X448670Y87657D01*
X448312Y86793D01*
X448190Y85866D01*
X448312Y84939D01*
X448670Y84075D01*
X449239Y83333D01*
X449981Y82764D01*
X450845Y82406D01*
X451772Y82284D01*
X452699Y82406D01*
X452705Y82409D01*
X474376Y60738D01*
X474376Y60738D01*
X474955Y60352D01*
X475638Y60216D01*
X582000D01*
X582683Y60352D01*
X583262Y60738D01*
X597262Y74738D01*
X597648Y75317D01*
X597784Y76000D01*
X597648Y76683D01*
X597262Y77262D01*
X596683Y77649D01*
X596000Y77784D01*
X595317Y77649D01*
X594738Y77262D01*
X581261Y63784D01*
X476377D01*
X455229Y84933D01*
X455231Y84939D01*
X455353Y85866D01*
X455231Y86793D01*
X454874Y87657D01*
X454304Y88399D01*
X453563Y88968D01*
X452699Y89326D01*
X451772Y89448D01*
D02*
G37*
G36*
X640748Y75105D02*
X638961Y74929D01*
X637243Y74408D01*
X635659Y73562D01*
X634271Y72422D01*
X633131Y71034D01*
X632285Y69450D01*
X631764Y67732D01*
X631588Y65945D01*
X631764Y64158D01*
X632285Y62439D01*
X633131Y60856D01*
X634271Y59467D01*
X635659Y58328D01*
X637243Y57482D01*
X638961Y56960D01*
X640748Y56784D01*
X642535Y56960D01*
X644254Y57482D01*
X645837Y58328D01*
X647226Y59467D01*
X648365Y60856D01*
X649211Y62439D01*
X649732Y64158D01*
X649908Y65945D01*
X649732Y67732D01*
X649211Y69450D01*
X648365Y71034D01*
X647226Y72422D01*
X645837Y73562D01*
X644254Y74408D01*
X642535Y74929D01*
X640748Y75105D01*
D02*
G37*
G36*
X447835D02*
X446047Y74929D01*
X444329Y74408D01*
X442745Y73562D01*
X441357Y72422D01*
X440218Y71034D01*
X439371Y69450D01*
X438850Y67732D01*
X438674Y65945D01*
X438850Y64158D01*
X439371Y62439D01*
X440218Y60856D01*
X441357Y59467D01*
X442745Y58328D01*
X444329Y57482D01*
X446047Y56960D01*
X447835Y56784D01*
X449622Y56960D01*
X451340Y57482D01*
X452924Y58328D01*
X454312Y59467D01*
X455451Y60856D01*
X456298Y62439D01*
X456819Y64158D01*
X456995Y65945D01*
X456819Y67732D01*
X456298Y69450D01*
X455451Y71034D01*
X454312Y72422D01*
X452924Y73562D01*
X451340Y74408D01*
X449622Y74929D01*
X447835Y75105D01*
D02*
G37*
%LPD*%
D42*
X595630Y294291D02*
D03*
X585630D02*
D03*
X575630D02*
D03*
X565630D02*
D03*
X555630D02*
D03*
X545630D02*
D03*
X535630D02*
D03*
D43*
X525630D02*
D03*
D48*
X620000Y246937D02*
Y280000D01*
Y246937D02*
X625587Y241350D01*
X626525D01*
X626536Y241339D01*
X451772Y85866D02*
X475638Y62000D01*
X582000D02*
X596000Y76000D01*
X475638Y62000D02*
X582000D01*
X451772Y95866D02*
X478000Y122095D01*
X471457Y176465D02*
X478000Y169921D01*
Y122095D02*
Y169921D01*
X461671Y115765D02*
Y156868D01*
X471457Y166654D01*
X451772Y105866D02*
X461671Y115765D01*
X471457Y176465D02*
Y176654D01*
X608000Y212521D02*
X612261Y208261D01*
X608000Y212521D02*
Y268000D01*
X590000Y286000D02*
X608000Y268000D01*
X563921Y286000D02*
X590000D01*
X555630Y294291D02*
X563921Y286000D01*
X588000Y282000D02*
X604000Y266000D01*
Y222000D02*
Y266000D01*
X557921Y282000D02*
X588000D01*
X545630Y294291D02*
X557921Y282000D01*
X525630Y294291D02*
X541921Y278000D01*
X584000D02*
X592000Y270000D01*
X541921Y278000D02*
X584000D01*
D49*
X626536Y234646D02*
D03*
Y237993D02*
D03*
Y241339D02*
D03*
Y244686D02*
D03*
Y248032D02*
D03*
Y251379D02*
D03*
Y254725D02*
D03*
Y258072D02*
D03*
X631850D02*
D03*
Y254725D02*
D03*
Y251379D02*
D03*
Y248032D02*
D03*
Y244686D02*
D03*
Y241339D02*
D03*
Y237993D02*
D03*
Y234646D02*
D03*
D50*
X630394Y229331D02*
D03*
Y263387D02*
D03*
D51*
X643701D02*
D03*
Y229331D02*
D03*
D52*
X482000Y270000D02*
D03*
X472000Y240000D02*
D03*
D53*
Y270000D02*
D03*
X482000Y240000D02*
D03*
D54*
X471457Y166654D02*
D03*
Y156653D02*
D03*
Y176654D02*
D03*
D55*
Y146653D02*
D03*
D56*
X558071Y120079D02*
D03*
X530512D02*
D03*
X544291Y72835D02*
D03*
D57*
X556102Y108268D02*
D03*
X532480Y84646D02*
D03*
D58*
X441772Y275866D02*
D03*
Y265866D02*
D03*
Y255866D02*
D03*
Y245866D02*
D03*
Y235866D02*
D03*
Y225866D02*
D03*
Y215866D02*
D03*
Y205866D02*
D03*
Y195866D02*
D03*
Y185866D02*
D03*
Y175866D02*
D03*
Y165866D02*
D03*
Y155866D02*
D03*
Y145866D02*
D03*
Y135866D02*
D03*
Y125866D02*
D03*
Y115866D02*
D03*
Y105866D02*
D03*
Y95866D02*
D03*
Y85866D02*
D03*
X451772Y275866D02*
D03*
Y265866D02*
D03*
Y255866D02*
D03*
Y245866D02*
D03*
Y235866D02*
D03*
Y225866D02*
D03*
Y215866D02*
D03*
Y205866D02*
D03*
Y195866D02*
D03*
Y185866D02*
D03*
Y175866D02*
D03*
Y165866D02*
D03*
Y155866D02*
D03*
Y145866D02*
D03*
Y135866D02*
D03*
Y125866D02*
D03*
Y115866D02*
D03*
Y105866D02*
D03*
Y95866D02*
D03*
Y85866D02*
D03*
D59*
X596000Y76000D02*
D03*
X612261Y208261D02*
D03*
X604000Y222000D02*
D03*
X592000Y270000D02*
D03*
X620000Y280000D02*
D03*
M02*
